<?xml version="1.0" encoding="utf-8"?>
<!DOCTYPE svg PUBLIC "-//W3C//DTD SVG 1.1//EN" "http://www.w3.org/Graphics/SVG/1.1/DTD/svg11.dtd">
<!-- Generated by geo2svg 2.4.1. https://d3js.org/d3-geo-projection/ -->
<svg version="1.1" xmlns="http://www.w3.org/2000/svg" xmlns:xlink="http://www.w3.org/1999/xlink" width="800" height="800" viewBox="0 0 800 800" fill="none" stroke="black">
  <path d="M192.031982,609.838098L192.109707,612.438124L195.437761,616.534165L197.267837,617.03817L196.921606,619.206192L199.790374,619.294193L199.203902,621.438214L200.694813,626.094261L205.930668,628.00628L207.534635,627.438274L209.011414,628.358284L210.346875,630.99831L210.403403,633.062331L208.02925,634.502345L206.630196,638.01438L203.379867,639.158392L204.08646,640.766408L199.069649,642.470425L197.395024,640.406404L194.06697,643.678437L192.844564,644.910449L189.043093,641.574416L183.100645,638.222382L176.585856,636.662367L172.438155,630.278303L172.445221,628.758288L176.670648,628.654287L178.119163,627.446274L181.214041,622.670227L187.516852,618.894189L186.004743,616.286163L185.90582,614.462145L184.527963,611.670117L185.446534,608.98209L186.774929,607.606076L188.456621,607.478075L187.750028,609.382094ZM262.465183,713.335133L261.101459,716.215162L259.384437,717.383174L260.020371,719.02319L258.451735,718.727187L257.519032,717.151172L259.024075,715.071151ZM285.676767,631.894319L284.108131,633.710337L284.256515,631.854319ZM302.613804,616.606166L305.567363,623.96624L305.765209,626.334263L303.115485,629.398294L300.748398,629.910299L299.624915,631.214312L294.735291,631.510315L290.74304,635.446354L288.92003,634.294343L287.104085,634.494345L283.556988,636.646366L282.504164,638.206382L281.430143,636.694367L283.620581,634.182342L285.182152,633.814338L285.789822,631.246312L283.465131,630.798308L284.065735,632.366324L282.419373,633.03033L280.476242,630.910309L278.193946,631.04631L279.098385,628.526285L279.706055,625.270253L278.335265,623.382234L280.405583,622.158222L283.034109,622.342223L284.814724,620.766208L284.991372,617.846178L287.457382,616.590166L292.799226,617.422174L292.749764,620.694207L295.272302,621.118211L295.795181,618.574186L300.034739,615.054151ZM239.564501,88.744887L238.822578,89.152892L238.80138,93.304933L242.405005,94.760948L244.475323,94.328943L244.235081,96.224962L246.270069,96.448964L246.340729,98.480985L248.835002,99.152992L250.078606,97.512975L253.095759,96.95297L255.590032,93.98494L254.961165,92.712927L258.027779,88.856889L262.684227,88.504885L264.097414,90.248902L266.72594,91.880919L268.20272,90.120901L271.022026,90.95291L272.060718,92.224922L271.064422,94.216942L273.184201,94.368944L274.244091,97.344973L277.664001,96.912969L277.96077,100.905009L279.967495,102.585026L279.585935,103.697037L277.183518,104.593046L277.452023,107.369074L275.37464,110.249102L274.406607,109.513095L271.820476,109.921099L270.308367,109.345093L268.51362,111.233112L261.22158,109.801098L259.836657,110.161102L256.607527,109.057091L254.664395,107.513075L250.947716,107.233072L247.238102,110.393104L245.683597,109.04909L246.149948,111.289113L245.019399,112.593126L242.694708,110.097101L238.872039,109.641096L237.112623,107.881079L236.434293,108.809088L230.41412,105.601056L229.700461,107.561076L227.750264,106.585066L227.425231,104.02504L225.814199,102.473025L226.428935,100.049L227.714934,100.265003L228.859615,97.144971L231.919163,99.096991L232.915459,96.792968L232.724679,93.080931L232.745877,93.056931L233.388877,91.384914L232.23713,90.856909L234.51236,88.04088L238.462215,87.704877ZM239.557435,49.9605L241.239126,51.888519L240.299357,53.728537L242.454466,55.904559L241.323917,58.832588L241.71961,60.576606L239.37372,62.736627L238.15838,65.136651L235.487458,65.736657L236.073931,71.02471L235.445063,72.216722L231.940361,70.904709L230.823944,72.488725L225.157067,76.136761L221.892607,76.896769L221.228409,78.712787L219.292344,78.152782L219.998937,71.544715L218.910784,68.608686L214.883203,66.848668L214.600566,67.624676L211.180655,68.808688L210.445798,71.208712L209.534293,71.240712L207.110679,69.496695L206.375822,66.96067L205.153416,65.496655L205.153416,63.432634L206.488877,61.312613L205.450185,61.192612L203.66957,58.672587L203.825021,56.304563L206.43235,54.624546L206.050789,53.456535L207.485173,51.97652L207.80314,49.272493L209.329381,48.592486L209.760403,46.240462L211.51982,44.944449L211.208919,42.192422L210.000645,41.360414L208.389612,37.736377L210.134897,36.112361L211.738864,35.98436L212.403061,34.536345L214.81961,33.232332L216.480104,33.448334L218.46563,32.488325L220.062531,34.896349L217.744905,37.624376L218.578685,39.680397L220.189717,40.696407L221.405058,43.200432L224.287958,43.352434L226.633847,44.416444L233.049712,40.520405L234.611283,40.696407L236.427227,43.808438L236.427227,45.776458L235.240151,47.256473L235.946744,49.368494L238.207842,48.872489ZM200.871462,673.166732L203.605977,672.910729L205.026229,673.598736L209.08914,673.638736L209.534293,674.878749L209.01848,680.126801L213.491215,682.142821L214.346192,683.278833L216.699147,683.590836L219.857619,682.03882L221.998596,684.01484L223.20687,682.430824L224.083046,684.294843L221.793684,685.494855L222.507343,690.0389L218.317246,692.214922L208.870096,696.102961L205.909471,697.910979L202.920582,700.703007L201.818297,698.622986L198.214672,698.350984L194.717036,696.95897L196.391661,693.98294L194.123498,691.534915L197.055859,688.366884L194.86542,685.678857L197.17598,683.222832L195.529618,682.630826L197.119452,680.95081L197.260771,677.638776L198.765814,676.430764L198.511441,675.03075L196.688431,672.97473ZM245.019399,112.593126L245.584674,115.753158L243.76873,119.057191L241.938653,118.849188L238.504611,119.833198L236.801722,119.401194L234.837393,118.297183L230.781548,118.561186L231.685987,116.265163L230.873405,115.04115L227.926912,114.417144L226.584385,112.449124L227.213253,111.681117L226.266418,107.193072L227.750264,106.585066L229.700461,107.561076L230.41412,105.601056L236.434293,108.809088L237.112623,107.881079L238.872039,109.641096L242.694708,110.097101ZM267.701038,644.574446L268.435895,648.566486L266.577555,650.99051L263.666392,652.894529L261.730327,654.886549L263.560403,659.758598L261.737393,662.334623L259.278448,663.390634L254.212176,657.95058L245.570542,652.614526L244.545982,651.310513L241.599489,647.00647L239.105215,645.326453L236.618007,642.638426L233.028514,641.942419L232.385515,639.366394L234.342778,640.326403L237.564842,640.062401L240.490138,638.654387L244.468257,637.942379L245.266707,638.398384L249.492134,637.494375L253.237077,638.95839L256.360219,640.862409L262.889139,642.310423L266.4645,644.510445ZM377.802377,432.668327L377.540938,434.876349L379.773772,439.156392L379.681915,442.740427L382.472958,446.860469L383.370331,449.452495L382.593079,450.396504L384.437287,453.99654L383.575243,454.348543L382.268046,452.252523L382.253914,454.668547L383.914408,454.620546L384.246507,456.884569L385.737418,459.532595L386.274429,462.524625L385.504242,462.876629L386.846769,465.796658L388.047977,466.276663L388.161032,469.148691L387.588692,472.620726L385.892868,472.212722L386.35922,470.756708L385.631429,465.860659L384.832979,464.620646L384.46555,471.084711L385.857539,471.852719L384.239441,472.828728L385.030825,476.596766L383.568177,475.548755L381.455464,476.292763L381.229354,478.308783L379.660717,478.164782L379.53353,480.748807L376.283202,481.96482L375.131455,483.516835L371.965918,484.052841L369.499908,482.900829L367.825283,483.196832L366.793657,481.556816L365.359273,477.196772L365.896283,475.00475L365.691371,470.772708L364.20046,469.716697L364.059141,468.060681L361.748582,465.076651L362.638889,461.084611L362.34212,459.076591L360.582703,457.364574L357.996572,452.652527L358.689034,451.420514L357.480759,447.97248L354.986486,438.420384L356.442068,438.99639L356.858957,437.676377L356.15943,434.324343L359.452154,431.804318L362.412779,431.836318L362.525834,428.340283L365.578316,427.924279L366.193052,427.068271L368.503612,427.508275L370.934292,426.948269L374.742829,428.484285L376.240807,431.428314ZM275.508892,590.941909L274.307684,593.925939L274.074508,596.349963L275.311046,596.549965L276.851419,598.469985L276.81609,600.390004L274.201695,604.486045L272.392817,604.630046L270.096389,602.486025L269.439257,604.286043L267.729302,605.694057L268.697335,606.830068L267.14283,607.894079L270.767653,610.326103L269.276741,611.686117L267.114566,611.894119L265.015985,610.590106L263.631062,611.318113L263.440282,609.390094L261.772722,608.758088L261.659667,606.550066L260.140492,606.054061L259.426833,603.446034L256.847768,603.286033L255.378055,600.854009L255.879736,599.789998L252.424495,597.925979L252.099462,599.077991L251.244485,597.461975L249.280156,596.669967L248.750211,594.285943L247.513673,593.613936L247.739783,591.861919L246.326597,589.173892L247.859904,586.317863L248.43931,583.829838L251.032507,581.797818L253.979,581.589816L258.1479,583.645836L256.748845,584.789848L256.494472,586.901869L257.702746,587.733877L260.027437,586.901869L260.168756,588.093881L262.988062,588.517885L266.846061,583.741837L266.627017,582.733827L268.789192,581.917819L269.312071,583.397834L267.446665,585.949859L268.209785,587.245872L271.481312,587.453875L271.686224,590.485905L274.477266,588.461885L276.045903,589.101891ZM297.11651,568.653687L292.142094,570.621706L291.407237,574.917749L292.94761,575.797758L292.686171,577.477775L294.530379,579.261793L284.772328,581.461815L281.839967,583.933839L281.302956,587.461875L279.161979,589.181892L275.508892,590.941909L276.045903,589.101891L274.477266,588.461885L271.686224,590.485905L271.481312,587.453875L268.209785,587.245872L267.446665,585.949859L269.312071,583.397834L268.789192,581.917819L266.627017,582.733827L266.846061,583.741837L262.988062,588.517885L260.168756,588.093881L260.027437,586.901869L257.702746,587.733877L256.494472,586.901869L256.748845,584.789848L258.1479,583.645836L253.979,581.589816L251.032507,581.797818L251.449397,579.621796L254.120319,578.149781L252.332638,573.189732L250.516694,568.717687L252.968572,563.837638L250.325914,558.581586L252.523418,557.949579L253.449055,558.685587L260.684569,558.605586L262.140151,557.98958L264.733347,558.97359L266.294918,557.277573L268.58428,553.477535L274.646849,554.429544L278.179814,552.821528L280.674088,550.96551L285.054965,545.861459L285.747427,544.325443L288.234634,543.02943L289.343985,549.837498L289.442909,556.02156L293.59061,557.053571L298.854729,564.117641ZM372.050709,629.494295L370.672853,629.054291L370.284227,627.326273L371.619688,627.182272ZM367.535579,589.581896L363.790636,590.525905L362.108944,592.421924L360.971329,596.749967L358.130825,596.373964L354.576662,596.709967L351.135553,598.285983L349.835422,600.142001L348.945115,603.270033L345.956226,604.326043L344.323996,603.902039L343.129853,604.878049L342.38793,607.766078L341.05247,607.614076L340.310547,609.710097L339.625151,608.614086L336.876504,607.790078L333.739231,608.97409L330.609023,609.518095L328.022893,613.662137L326.927673,618.238182L325.811256,620.086201L321.317324,618.99819L317.310941,620.286203L315.268887,622.422224L311.898438,623.318233L305.765209,626.334263L305.567363,623.96624L302.613804,616.606166L305.630957,614.742147L305.199935,608.622086L302.719793,605.03805L300.967442,605.230052L298.360114,603.182032L300.140728,600.198002L300.303245,598.325983L302.23931,593.901939L303.433452,593.453935L303.207342,590.581906L304.429748,587.96588L305.666286,587.149871L307.446901,588.925889L310.633636,589.893899L312.597965,589.317893L313.021921,588.141881L316.816326,587.717877L322.5044,588.229882L327.514145,589.869899L329.082782,593.845938L333.393,591.181912L334.862714,590.933909L340.897019,585.597856L338.565262,583.061831L339.088141,581.309813L341.05247,580.213802L343.143985,581.237812L346.026885,580.165802L346.754676,580.781808L350.372433,580.285803L352.145981,581.101811L354.067915,578.829788L356.929617,579.093791L358.519451,582.629826L359.593473,583.237832L362.490505,582.933829L362.335054,585.781858L366.482756,587.445874ZM195.529618,682.630826L197.17598,683.222832L194.86542,685.678857L197.055859,688.366884L194.123498,691.534915L196.391661,693.98294L194.717036,696.95897L198.214672,698.350984L201.818297,698.622986L202.920582,700.703007L198.787012,709.751098L195.932376,712.879129L191.56563,714.439144L188.216379,719.263193L183.051183,721.143211L175.716747,722.719227L169.689508,720.855209L169.329145,719.367194L174.006792,718.359184L172.678397,716.311163L173.31433,715.167152L176.854362,713.799138L178.267548,711.071111L174.678055,712.623126L172.572408,710.903109L173.54044,705.439054L173.865473,693.03093L174.473143,689.214892L175.130275,676.294763L177.356043,678.054781L179.065998,674.742747L180.429723,676.190762L183.157172,674.96675ZM215.596862,647.294473L220.620739,650.678507L223.326991,654.574546L222.090453,655.454555L218.649344,655.454555L218.423235,655.310553L215.024522,656.662567L213.908105,654.894549L212.565578,656.358564L210.431667,654.01454L208.439074,657.630576L200.044748,649.782498L198.151078,646.942469L197.246639,647.086471L193.791399,644.070441L194.06697,643.678437L197.395024,640.406404L199.069649,642.470425L204.08646,640.766408L203.379867,639.158392L206.630196,638.01438L211.647007,642.270423L212.728094,644.502445ZM257.780471,48.096481L255.491109,49.424494L254.176846,49.232492L254.007264,50.864509L252.318506,51.448514L249.633453,50.640506L248.008288,51.464515L247.18864,49.792498L242.284884,46.360464L240.334687,47.760478L239.557435,49.9605L238.207842,48.872489L235.946744,49.368494L235.240151,47.256473L236.427227,45.776458L236.427227,43.808438L234.611283,40.696407L233.049712,40.520405L226.633847,44.416444L224.287958,43.352434L221.405058,43.200432L220.189717,40.696407L218.578685,39.680397L217.744905,37.624376L220.062531,34.896349L218.46563,32.488325L216.480104,33.448334L214.81961,33.232332L212.403061,34.536345L211.738864,35.98436L210.134897,36.112361L208.389612,37.736377L206.785646,37.720377L206.856305,34.280343L205.421921,31.760318L201.380209,28.920289L195.769859,26.224262L197.515144,25.688257L197.705925,23.904239L200.299121,22.376224L200.927989,20.056201L206.446481,19.176192L208.396678,14.00014L209.894656,13.608136L210.594183,16.104161L213.392292,15.472155L217.525861,16.344163L217.92862,17.472175L220.281575,18.480185L221.334398,19.840198L223.553101,20.296203L224.160771,22.488225L226.838759,21.760218L230.845142,22.496225L230.908735,19.912199L240.094445,19.9602L242.503928,22.512225L243.28118,25.072251L247.181574,26.600266L248.580629,25.272253L251.414067,25.352254L252.163056,24.328243L254.530143,24.224242L255.222604,22.184222L257.794603,23.544235L259.017009,22.856229L261.963502,26.112261L262.677161,24.872249L264.775743,25.176252L264.90293,26.720267L267.383072,28.128281L269.76429,28.488285L269.962136,30.640306L267.284148,32.328323L267.898884,34.160342L266.683544,34.640346L264.45071,40.576406L261.652601,40.520405L259.829591,39.264393L258.402273,44.200442ZM544.798594,360.787608L542.205397,362.611626L539.371959,363.155632L538.269673,361.939619L539.916035,361.02761L545.328539,359.827598ZM541.159639,361.339613L538.820816,361.891619L539.661662,362.97963L542.502166,362.291623L543.420737,360.899609ZM506.840412,361.803618L505.172852,361.307613L506.359928,359.827598L508.677554,360.587606ZM335.463318,353.355534L333.647374,354.387544L332.149396,357.595576L334.876846,359.939599L336.911834,359.627596L336.579735,357.95558L338.084778,356.03556L342.366733,357.875579L338.303822,358.851589L337.985855,360.667607L339.999646,365.179652L337.978789,364.827648L336.254702,366.387664L335.011098,365.291653L332.855989,366.95567L331.329748,366.227662L330.142672,367.195672L328.093552,366.803668L325.401432,367.507675L323.974114,366.291663L325.3873,363.099631L324.341542,360.427604L321.529302,361.939619L319.564973,360.611606L317.529985,360.803608L319.324731,358.02758L320.271566,354.03554L321.96739,353.115531L324.101301,354.387544L325.61341,353.211532L328.906134,354.883549L332.340176,354.563546ZM507.221972,349.659497L507.695389,351.923519L505.787588,353.171532L506.034896,350.547505L500.48814,350.499505L497.259009,353.555536L500.403348,352.339523L501.321919,352.827528L499.230404,354.243542L497.032899,354.763548L496.227383,353.187532L499.944063,349.851499L506.204478,349.131491ZM520.915747,347.04347L518.082308,347.059471L514.923837,348.083481L514.725991,346.947469L518.718242,345.851459ZM498.643932,342.315423L497.11769,340.563406L498.015064,339.9874ZM504.996204,341.97942L505.024467,337.95538L506.60017,338.843388ZM504.671171,337.427374L503.30038,336.787368L504.197753,335.627356ZM487.96731,329.099291L486.660112,328.563286L488.370068,327.379274ZM530.744457,315.947159L527.218557,316.539165L526.370645,315.739157L528.815458,314.803148ZM496.177922,309.9871L492.920527,311.691117L490.701825,311.243112L490.977396,310.355104L493.789637,309.355094ZM358.653704,509.277093L358.371067,509.677097L362.193735,512.077121L364.122735,515.493155L366.539283,515.97316L367.719294,517.95718L372.340413,517.98118L373.26605,519.613196L373.541621,523.317233L372.877423,524.461245L371.174534,523.853239L369.231403,524.949249L369.019425,527.181272L367.415459,528.669287L368.955832,530.317303L367.189349,533.565336L367.719294,535.493355L363.430273,533.00533L361.268098,534.429344L360.377791,534.04534L358.159089,536.95737L359.056462,539.325393L358.653704,542.101421L357.67154,543.133431L354.696783,543.99744L352.188377,543.053431L350.457224,543.97344L349.687037,542.677427L348.083071,544.141441L344.649028,545.701457L343.29237,545.101451L340.550788,547.341473L338.607657,547.693477L337.583097,549.525495L336.989559,548.557486L335.004032,548.95749L334.113725,547.901479L331.598254,548.509485L330.248661,545.717457L326.857014,542.749427L325.154124,543.053431L322.928356,540.581406L322.023917,538.173382L322.454939,536.797368L325.344905,535.837358L326.235212,534.341343L323.430037,531.925319L320.794445,531.261313L322.942488,529.301293L321.246665,523.077231L321.684752,521.485215L319.522577,520.869209L319.035028,518.197182L316.484227,519.757198L314.943854,519.813198L308.393736,518.661187L305.235265,518.941189L302.39476,515.173152L301.63164,511.229112L302.649134,510.333103L301.63164,508.109081L307.446901,494.388944L311.771251,491.052911L315.092239,491.428914L318.377897,489.804898L326.588508,490.652907L328.694156,489.140891L333.075033,489.388894L334.721395,490.556906L338.819635,491.100911L342.698831,492.692927L343.984831,495.97296L345.765446,496.836968L346.493236,499.636996L348.18906,501.229012L348.068939,503.093031L350.789323,505.669057L350.676268,507.429074ZM331.598254,548.509485L331.555858,550.357504L327.966365,550.469505L325.620476,551.629516L324.39807,554.205542L326.652102,554.869549L326.588508,556.069561L331.449869,562.389624L329.372485,565.405654L325.238916,567.445674L323.698543,565.925659L322.292422,567.165672L320.886302,566.02966L320.638994,563.493635L316.039073,564.213642L313.657855,563.533635L312.237602,561.157612L310.584174,561.605616L310.668966,562.893629L308.492659,563.909639L308.00511,565.149651L304.783045,567.485675L301.539783,567.349673L300.720135,568.829688L298.324784,569.501695L297.11651,568.653687L298.854729,564.117641L293.59061,557.053571L289.442909,556.02156L289.343985,549.837498L288.234634,543.02943L291.31538,541.741417L294.933137,541.549415L298.416641,545.477455L299.631981,543.509435L304.401485,540.461405L304.606397,537.349373L306.132638,533.645336L305.489638,531.97332L306.606055,530.469305L305.630957,526.245262L305.970121,524.485245L305.235265,518.941189L308.393736,518.661187L314.943854,519.813198L316.484227,519.757198L319.035028,518.197182L319.522577,520.869209L321.684752,521.485215L321.246665,523.077231L322.942488,529.301293L320.794445,531.261313L323.430037,531.925319L326.235212,534.341343L325.344905,535.837358L322.454939,536.797368L322.023917,538.173382L322.928356,540.581406L325.154124,543.053431L326.857014,542.749427L330.248661,545.717457ZM111.275455,70.632706L110.448741,73.440734L112.476663,75.97676L114.151289,80.864809L116.09442,84.840848L113.458828,86.608866L114.221948,87.504875L112.370674,90.720907L112.22229,92.248922L109.49484,93.344933L108.653995,97.296973L106.315171,97.056971L103.644249,97.824978L106.046666,100.753008L105.347139,102.305023L107.982731,103.161032L108.201775,110.385104L106.527149,111.169112L107.806083,115.161152L105.742831,115.569156L102.54903,113.865139L100.761349,115.449154L101.771778,121.097211L101.29836,123.185232L97.87845,123.809238L95.553758,122.825228L93.10188,123.737237L89.22975,115.913159L86.304454,115.305153L84.594499,110.929109L82.955203,110.225102L83.294368,107.265073L81.096863,105.95306L79.012413,106.441064L78.475403,105.409054L80.630512,103.817038L82.559511,103.585036L82.616038,99.672997L84.177609,96.728967L81.499621,97.640976L83.534609,93.704937L87.159432,89.672897L86.601223,86.280863L87.003982,82.880829L85.294026,82.608826L81.683335,83.784838L80.736501,82.944829L80.475061,77.160772L79.019479,77.248772L79.196128,82.320823L75.465316,85.856859L72.130196,86.152862L70.759406,82.344823L71.374142,79.328793L70.618087,76.160762L69.183703,75.488755L68.780945,73.00073L64.287013,70.712707L63.16353,69.456695L64.689771,68.00068L60.739915,64.632646L60.542069,63.368634L58.19618,62.760628L54.599621,58.776588L53.136974,59.00059L52.889666,57.536575L51.427018,57.392574L51.02426,55.168552L48.318009,54.056541L49.130591,52.536525L47.703273,51.544515L46.714042,49.264493L47.434767,47.848478L51.207974,47.912479L52.380919,48.584486L51.709656,46.496465L55.164896,41.96842L56.528621,44.824448L58.217378,45.912459L58.358697,48.896489L60.966025,51.104511L65.756727,57.128571L67.219374,56.256563L69.325022,57.480575L69.374483,59.352594L72.116065,60.816608L73.133559,58.904589L71.423603,56.568566L74.6598,57.376574L75.783283,58.864589L75.295734,62.520625L76.913832,64.816648L80.701171,66.00066L84.050422,64.552646L86.926256,67.824678L87.569256,66.584666L89.392266,66.776668L91.815881,65.720657L92.402353,64.088641L94.628121,65.816658L95.744538,65.168652L100.88147,67.232672L101.149976,63.904639L103.488799,61.536615L105.820556,61.400614L108.272434,66.392664L109.932928,67.656677L109.191005,68.584686ZM304.429748,587.96588L303.207342,590.581906L303.433452,593.453935L302.23931,593.901939L300.303245,598.325983L300.140728,600.198002L298.360114,603.182032L300.967442,605.230052L302.719793,605.03805L305.199935,608.622086L305.630957,614.742147L302.613804,616.606166L300.034739,615.054151L295.795181,618.574186L295.272302,621.118211L292.749764,620.694207L292.799226,617.422174L287.457382,616.590166L284.991372,617.846178L284.814724,620.766208L283.034109,622.342223L280.405583,622.158222L278.335265,623.382234L279.706055,625.270253L279.098385,628.526285L277.96077,628.278283L277.699331,625.878259L274.27942,624.494245L272.463476,622.542225L270.138785,623.510235L266.810731,620.286203L267.319478,618.110181L269.969202,616.182162L272.470542,616.782168L272.71785,614.422144L271.566103,613.110131L270.767653,610.326103L267.14283,607.894079L268.697335,606.830068L267.729302,605.694057L269.439257,604.286043L270.096389,602.486025L272.392817,604.630046L274.201695,604.486045L276.81609,600.390004L276.851419,598.469985L275.311046,596.549965L274.074508,596.349963L274.307684,593.925939L275.508892,590.941909L279.161979,589.181892L281.302956,587.461875L281.839967,583.933839L284.772328,581.461815L294.530379,579.261793L295.533741,577.645776L296.289796,580.789808L298.042147,580.157802L300.939178,582.493825L299.017245,584.421844L301.129959,584.597846L301.801222,586.405864L304.019924,588.501885ZM206.849239,607.878079L207.640624,609.334093L210.848557,610.806108L212.247611,613.702137L211.449161,613.766138L220.281575,622.03022L222.839442,623.02223L226.450132,627.830278L228.011703,627.942279L227.969308,629.942299L224.047716,634.102341L223.326991,636.134361L221.949134,635.910359L222.005662,638.222382L223.023156,639.398394L225.679946,640.470405L224.87443,641.02241L226.909418,643.590436L224.8391,644.630446L224.563529,646.318463L221.263739,646.262463L217.751971,643.878439L215.596862,647.294473L212.728094,644.502445L211.647007,642.270423L206.630196,638.01438L208.02925,634.502345L210.403403,633.062331L210.346875,630.99831L209.011414,628.358284L207.534635,627.438274L205.930668,628.00628L200.694813,626.094261L199.203902,621.438214L199.790374,619.294193L196.921606,619.206192L197.267837,617.03817L195.437761,616.534165L192.109707,612.438124L192.031982,609.838098L195.572013,610.518105L199.140309,612.486125L203.309208,606.942069ZM352.315564,432.172322L356.15943,434.324343L356.858957,437.676377L356.442068,438.99639L354.986486,438.420384L357.480759,447.97248L358.689034,451.420514L357.996572,452.652527L360.582703,457.364574L362.34212,459.076591L362.638889,461.084611L361.748582,465.076651L364.059141,468.060681L364.20046,469.716697L365.691371,470.772708L365.896283,475.00475L365.359273,477.196772L366.793657,481.556816L363.804768,481.156812L361.988823,481.724817L359.777187,485.540855L361.755648,486.924869L364.073273,486.164862L364.921185,491.900919L367.84648,495.732957L366.263712,501.261013L362.589428,502.557026L361.995889,504.573046L362.278527,507.493075L359.296704,508.309083L358.653704,509.277093L350.676268,507.429074L350.789323,505.669057L348.068939,503.093031L348.18906,501.229012L346.493236,499.636996L345.765446,496.836968L343.984831,495.97296L342.698831,492.692927L338.819635,491.100911L334.721395,490.556906L333.075033,489.388894L328.694156,489.140891L326.588508,490.652907L318.377897,489.804898L315.092239,491.428914L311.771251,491.052911L307.446901,494.388944L308.619846,491.660917L307.948582,483.556836L305.779341,479.02079L305.616825,476.860769L303.935133,473.164732L299.978212,470.716707L301.002772,467.948679L300.147794,467.01267L300.402168,464.404644L301.052233,462.764628L303.525309,461.540615L303.391057,460.0206L307.022945,459.436594L307.771934,457.636576L309.545483,457.340573L309.877581,452.764528L311.297834,449.9965L314.597623,450.884509L318.47682,449.260493L319.027962,447.364474L321.25373,447.196472L324.306213,449.628496L326.927673,448.948489L328.11475,447.292473L329.047453,447.836478L331.746638,443.092431L333.484857,443.788438L337.788009,441.516415L340.331745,441.756418L340.126833,440.948409L344.444116,435.148351L343.25704,432.612326L345.355622,431.692317L347.030247,433.676337L349.482125,434.324343L351.375795,433.780338ZM209.894656,13.608136L208.396678,14.00014L206.446481,19.176192L200.927989,20.056201L200.299121,22.376224L197.705925,23.904239L197.515144,25.688257L195.769859,26.224262L201.380209,28.920289L205.421921,31.760318L206.856305,34.280343L206.785646,37.720377L204.934372,38.96039L198.716353,37.504375L197.840177,38.776388L196.561244,37.488375L190.117115,34.664347L189.255071,35.904359L190.625862,38.248382L189.749686,38.216382L188.52728,40.680407L189.071357,42.792428L188.166918,44.824448L188.548478,46.632466L187.234215,47.368474L187.785357,48.696487L186.47816,50.176502L187.142358,51.328513L184.973117,51.768518L185.898754,52.752528L185.22749,54.880549L183.63059,55.944559L182.061953,53.056531L180.578108,53.192532L178.203955,51.816518L178.097966,53.504535L179.277976,54.672547L177.850658,55.672557L179.108394,57.248572L178.076768,59.9526L175.801538,59.9766L171.385331,60.552606L169.852024,59.248592L169.788431,56.392564L164.114488,54.936549L163.29484,56.728567L161.726203,57.184572L161.217456,55.504555L162.87795,54.208542L162.764895,51.648516L158.673721,48.336483L156.744722,46.256463L157.924732,45.176452L155.070096,42.98443L155.564711,40.728407L157.514908,40.688407L157.211073,38.752388L154.957041,37.504375L154.306976,35.416354L152.688877,35.784358L151.57246,33.920339L152.208394,34.848348L154.370569,34.344343L155.494052,32.600326L157.557304,31.712317L160.037446,29.560296L161.387039,27.504275L163.513884,26.848268L164.552576,28.648286L165.11785,27.136271L167.421344,28.584286L170.389035,27.944279L172.226177,24.424244L176.515197,22.280223L175.356384,20.368204L173.561638,13.352134L177.101669,13.136131L177.377241,11.304113L179.0448,10.584106L180.641701,12.064121L181.030327,9.576096L182.867469,9.384094L187.198885,6.176062L188.30117,7.304073L191.240598,5.176052L193.87619,6.472065L195.28231,2.496025L196.511782,2.536025L198.419584,0L200.737209,3.672037L202.927648,5.464055L203.535318,4.472045L206.503009,7.856079L206.905767,9.512095L209.421238,10.224102L210.290348,11.576116ZM236.483755,137.489375L237.147952,139.665397L238.970962,141.065411L239.592764,144.121441L237.762688,144.809448L236.964238,143.305433L235.515722,143.905439L235.579315,145.393454L232.80947,144.825448L231.707185,147.305473L230.301065,148.057481L229.61567,146.289463L227.743198,148.289483L227.644275,149.801498L225.976715,149.409494L224.125441,147.137471L223.673222,144.449444L220.981102,142.673427L219.75163,140.105401L220.945772,139.929399L221.829013,136.641366L222.804112,135.889359L225.814199,135.761358L227.976374,134.313343L229.636867,135.105351L230.887537,133.193332L232.343119,134.161342L232.357251,136.401364L233.431272,137.881379ZM225.814199,102.473025L227.425231,104.02504L227.750264,106.585066L226.266418,107.193072L227.213253,111.681117L226.584385,112.449124L227.926912,114.417144L230.873405,115.04115L231.685987,116.265163L230.781548,118.561186L228.880813,119.241192L229.064527,120.273203L226.499594,119.9612L226.577319,122.657227L225.757671,123.577236L227.580681,125.809258L226.499594,126.849268L227.177923,129.00129L229.205846,129.833298L229.61567,133.433334L230.887537,133.193332L229.636867,135.105351L227.976374,134.313343L225.814199,135.761358L222.804112,135.889359L221.829013,136.641366L220.945772,139.929399L219.75163,140.105401L218.479762,138.377384L216.805136,138.369384L215.01039,134.393344L215.61806,133.577336L213.851577,131.425314L213.583072,127.233272L211.668205,126.457265L209.880524,127.99328L210.940414,125.601256L209.725073,124.505245L210.68604,122.145221L207.018822,122.089221L204.333768,120.801208L201.472066,117.417174L198.136946,118.03318L197.041727,116.209162L198.278265,112.98513L196.744958,110.697107L197.303167,109.369094L199.288693,108.337083L200.320319,104.209042L202.291714,103.95304L204.044065,105.521055L205.386592,109.849098L206.566602,110.665107L209.823996,111.065111L212.565578,109.937099L212.445457,108.521085L214.840808,106.793068L217.554125,107.489075L217.518795,105.561056L219.355938,103.617036L220.472355,100.849008L221.200146,99.584996L223.842804,100.009L224.471672,102.417024ZM219.221685,228.826288L220.13319,228.95429L221.588772,234.714347L222.973694,237.778378L227.255649,244.01044L227.91278,243.578436L230.272801,247.170472L235.077634,252.250523L238.342095,252.938529L242.645247,255.506555L247.669124,260.410604L250.884122,261.578616L252.085331,264.418644L254.353494,267.786678L255.095417,267.97068L252.219583,268.458685L251.611913,267.402674L246.969596,266.562666L244.15029,269.258693L244.093762,270.146701L241.465236,269.442694L239.006292,270.186702L232.936657,268.650687L234.413437,266.490665L230.074955,262.890629L228.478055,263.194632L227.587747,261.714617L225.679946,261.650617L224.542331,262.762628L222.097519,263.098631L222.592134,264.426644L220.196783,265.162652L217.971015,264.298643L216.628488,266.394664L213.731456,266.490665L210.848557,265.458655L210.1137,261.810618L208.771173,261.914619L207.350921,260.122601L206.467679,256.106561L203.104296,257.050571L202.588483,258.450585L198.292397,256.234562L198.80821,253.626536L195.31764,253.322533L194.67464,251.578516L192.145037,250.354504L191.608026,246.906469L190.272565,247.01847L188.004401,244.162442L188.56261,239.642396L189.424653,237.074371L190.689455,235.96236L192.010784,236.514365L194.024574,237.186372L196.37753,235.442354L200.383912,237.594376L203.768494,237.242372L207.075349,236.138361L208.940755,238.906389L212.431325,237.746377L213.41349,238.266383L215.858302,237.090371L215.928961,235.450355L217.589455,233.114331L219.610311,232.330323L218.486828,229.842298ZM254.664395,107.513075L253.908341,112.201122L251.795627,112.841128L252.466891,115.385154L255.38512,116.321163L258.183229,115.769158L259.93558,117.553176L257.222263,118.785188L259.122998,121.273213L255.929197,122.769228L257.080944,124.697247L253.795286,125.057251L254.508945,130.441304L252.770726,132.249322L250.163397,131.817318L247.541937,133.377334L246.99786,132.849328L243.599147,134.169342L241.486434,132.96133L240.984753,130.921309L238.115985,129.433294L237.013699,128.145281L238.271435,121.073211L236.801722,119.401194L238.504611,119.833198L241.938653,118.849188L243.76873,119.057191L245.584674,115.753158L245.019399,112.593126L246.149948,111.289113L245.683597,109.04909L247.238102,110.393104L250.947716,107.233072ZM271.000828,127.545275L272.138443,126.913269L273.721212,128.505285L271.226938,128.793288ZM276.300277,125.129251L277.466155,126.193262L280.151209,125.433254L280.773011,127.569276L282.12967,127.265273L283.323812,129.577296L280.681154,129.713297L281.225231,132.497325L278.434188,132.04132L275.33931,127.705277ZM267.149896,127.937279L266.888456,129.905299L268.96584,132.481325L268.718532,134.01734L267.383072,132.761328L264.945325,134.03334L262.585304,136.601366L260.57858,137.02537L259.483361,136.393364L255.512307,138.177382L253.18055,138.321383L251.696704,135.313353L249.88076,133.945339L250.163397,131.817318L252.770726,132.249322L254.508945,130.441304L253.795286,125.057251L257.080944,124.697247L255.929197,122.769228L259.122998,121.273213L257.222263,118.785188L259.93558,117.553176L261.843382,117.641176L267.354808,119.721197L267.503192,122.601226L266.72594,124.497245L265.256226,125.153252L266.697676,125.945259ZM218.423235,655.310553L218.649344,655.454555L222.090453,655.454555L223.326991,654.574546L225.835396,656.718567L224.782573,657.782578L223.249266,665.814658L216.529565,669.942699L214.967994,671.382714L210.509392,672.238722L209.08914,673.638736L205.026229,673.598736L203.605977,672.910729L200.871462,673.166732L202.433033,670.862709L199.168572,669.278693L198.688089,668.222682L202.842857,665.526655L203.570647,662.574626L207.654756,660.318603L208.439074,657.630576L210.431667,654.01454L212.565578,656.358564L213.908105,654.894549L215.024522,656.662567ZM198.136946,118.03318L201.472066,117.417174L204.333768,120.801208L207.018822,122.089221L210.68604,122.145221L209.725073,124.505245L210.940414,125.601256L209.880524,127.99328L211.668205,126.457265L213.583072,127.233272L213.851577,131.425314L215.61806,133.577336L215.01039,134.393344L216.805136,138.369384L218.479762,138.377384L219.75163,140.105401L220.981102,142.673427L223.673222,144.449444L224.125441,147.137471L222.351892,147.321473L220.839783,145.529455L218.88252,146.265463L219.249949,149.297493L215.731115,147.729477L217.801433,151.201512L215.794708,152.841528L210.806161,149.721497L208.926623,150.0415L207.061217,150.129501L203.28801,148.849488L202.334109,149.497495L199.564264,148.657487L195.360035,146.497465L195.73453,145.497455L193.918586,143.01743L191.063949,142.465425L190.336158,141.169412L186.93038,139.529395L184.061612,140.369404L181.16458,137.945379L181.093921,136.95337L178.140361,134.913349L175.716747,135.833358L175.62489,130.745307L177.356043,130.097301L182.902799,132.273323L182.613096,130.817308L184.153469,128.465285L182.95226,127.769278L183.298491,126.257263L181.9277,123.241232L180.203613,121.98522L176.705977,117.217172L175.978186,114.833148L178.875218,113.065131L178.811625,115.345153L181.192844,115.633156L186.393369,118.857189L187.410863,120.545205L189.353994,121.649216L192.894025,120.98521L192.533663,122.545225L194.914882,121.281213L197.917903,122.345223L199.465341,121.481215ZM236.801722,119.401194L238.271435,121.073211L237.013699,128.145281L238.115985,129.433294L240.984753,130.921309L241.486434,132.96133L243.599147,134.169342L241.147269,135.585356L241.4935,136.257363L237.628436,135.393354L236.024469,136.209362L236.483755,137.489375L233.431272,137.881379L232.357251,136.401364L232.343119,134.161342L230.887537,133.193332L229.61567,133.433334L229.205846,129.833298L227.177923,129.00129L226.499594,126.849268L227.580681,125.809258L225.757671,123.577236L226.577319,122.657227L226.499594,119.9612L229.064527,120.273203L228.880813,119.241192L230.781548,118.561186L234.837393,118.297183ZM495.29468,773.239732L495.598515,770.191702L496.714932,770.839708ZM503.024809,766.607666L500.848502,768.191682L500.947425,767.063671ZM620.015431,761.631616L616.411806,763.519635L613.288664,766.655667L609.868754,767.591676L609.819292,766.247662L612.285302,766.847668L616.277553,763.287633L618.87075,761.495615ZM443.367152,759.287593L444.956987,757.079571L445.458668,758.431584ZM635.030534,751.551516L632.712909,753.095531L630.621393,753.03953L633.483095,750.855509ZM608.766468,748.95949L610.971039,751.887519L607.621787,749.599496ZM452.044116,746.887469L451.224468,749.607496L449.973798,748.543485L450.108051,746.519465ZM647.508969,741.743417L649.296649,741.799418L650.971275,743.343433L650.815825,745.00745L649.112935,743.527435L643.474322,743.479435L642.449762,744.855449L636.938336,745.183452L639.319555,744.01544L646.456145,741.479415ZM581.682754,739.239392L580.2837,741.687417L576.404504,745.663457L578.863448,740.96741L581.513172,738.311383ZM578.086195,743.383434L580.481546,741.167412L581.04682,739.399394L579.216744,741.01541ZM669.879707,731.439314L670.529772,732.199322L673.780101,732.703327L673.377343,733.335333L669.794916,733.111331L668.544246,731.559316ZM621.75365,714.439144L622.51677,716.95117L621.047057,717.807178L620.50298,713.887139ZM621.117716,717.295173L622.149342,716.799168L620.835079,714.903149ZM609.911149,709.767098L614.242565,710.407104L615.57096,713.111131L612.772851,712.855129L607.770172,710.207102ZM612.977763,712.567126L615.1894,712.783128L612.716324,710.391104L609.338809,710.0391L609.529589,711.00711ZM544.819792,709.399094L549.207735,710.263103L544.084935,711.103111L543.378342,709.279093ZM722.761135,706.01506L722.07574,707.711077L720.712015,708.04708L721.446872,706.079061ZM598.492604,703.407034L595.348265,704.743047L595.800485,703.815038ZM681.66568,681.854819L682.379339,684.470845L680.810702,684.926849L680.393812,683.590836ZM567.586222,668.98269L562.435158,672.790728L559.227225,674.278743L561.862817,670.182702L563.671696,668.566686L561.205686,672.222722L563.155883,672.02272L567.247057,668.638686ZM733.805186,666.206662L735.65646,666.078661L737.21803,667.694677L732.660505,666.670667ZM702.927067,663.518635L702.213408,666.550666L700.779024,669.782698L701.146452,666.694667L700.743694,664.686647L701.916638,663.086631ZM701.181782,667.942679L702.630298,664.182642L701.019265,664.822648ZM686.470513,657.142571L688.053282,658.406584L686.498777,659.814598L684.73936,659.550596L684.138756,657.734577ZM684.824151,659.326593L686.56237,659.614596L687.240699,657.582576L684.435525,657.654577ZM644.435289,653.870539L643.84175,656.182562L643.30474,654.350544ZM605.346558,653.478535L605.13458,647.334473L606.116744,647.98248ZM675.263946,644.262443L674.211122,645.518455L674.013276,643.526435ZM731.97511,639.9984L730.484198,638.774388L731.71367,637.294373L733.042065,639.00639ZM646.088717,637.766378L644.583673,639.294393L643.983069,638.02238L646.851837,635.678357ZM638.860269,638.294383L638.75428,636.326363L640.1604,634.814348ZM698.638046,628.094281L698.129299,630.718307L696.680783,631.662317L694.659927,630.438304L696.150839,628.062281ZM751.21564,627.318273L752.678288,626.862269L752.734815,628.342283L750.890607,629.254293L749.760058,627.198272ZM716.359402,624.710247L715.681072,624.654247L715.843589,619.206192L717.899775,623.02223ZM739.592183,616.654167L737.606657,615.694157L737.903426,614.102141L740.17159,616.230162ZM701.874243,615.830158L703.188506,620.326203L701.626935,618.766188L700.913276,616.04616L699.266914,616.142161L700.312672,622.638226L701.153518,622.694227L699.705002,625.150252L698.708706,618.318183L698.800563,616.00616L700.220815,613.862139ZM656.652284,612.102121L655.14724,612.246122L657.337679,610.366104ZM617.210256,609.742097L617.068937,609.870099L615.238861,610.0141L616.701509,608.638086ZM723.835157,586.829868L724.895047,583.117831L725.714695,583.549835ZM644.463552,582.03782L642.916113,582.357824L642.393235,586.461865L642.131795,583.261833L642.795993,581.629816ZM717.214379,583.869839L716.91761,583.061831L718.860741,581.197812ZM726.371826,581.853819L725.693497,581.557816L727.544771,578.461785ZM721.079444,580.733807L720.570697,580.237802L724.216717,576.95777L724.661871,577.581776ZM727.509441,574.653747L726.838178,573.949739L728.957957,572.581726ZM731.063604,573.677737L729.827066,571.357714L731.275582,569.133691L731.593549,572.237722ZM387.256593,546.413464L389.072538,546.413464L389.927515,548.00548L387.461505,548.669487L385.532506,547.237472ZM390.506922,527.125271L392.28047,527.293273L393.637129,530.501305L392.866943,530.789308L388.669779,527.917279ZM383.229012,566.485665L380.452102,566.829668L378.346454,566.301663L375.781521,561.861619L373.273115,561.461615L369.803743,559.709597L368.842777,559.933599L366.624074,558.213582L366.963239,556.701567L364.334713,555.237552L364.801064,554.501545L363.578658,551.421514L363.868361,549.813498L360.978395,549.573496L359.628802,545.821458L359.791319,542.693427L358.653704,542.101421L359.056462,539.325393L358.159089,536.95737L360.377791,534.04534L361.268098,534.429344L363.430273,533.00533L367.719294,535.493355L367.189349,533.565336L368.955832,530.317303L367.415459,528.669287L369.019425,527.181272L369.231403,524.949249L371.174534,523.853239L372.877423,524.461245L373.541621,523.317233L375.915774,521.365214L377.986092,521.533215L379.561794,518.813188L380.741805,519.709197L381.681574,517.637176L384.790583,518.157182L386.111912,516.925169L387.53923,517.213172L391.404295,515.525155L392.47125,516.677167L390.959141,517.757178L391.368965,520.0132L394.294261,525.109251L395.573194,525.117251L393.693656,529.173292L392.527778,527.053271L393.347426,524.99725L390.846086,523.853239L391.997833,523.261233L390.888482,518.805188L389.503559,519.00519L386.118978,523.261233L384.825913,523.845238L382.670804,527.509275L383.822551,530.413304L385.002561,528.709287L385.362924,532.869329L387.920791,534.365344L387.878395,536.949369L390.210152,538.02138L388.365944,538.99739L388.203428,540.325403L386.472275,540.0214L385.150946,537.493375L382.381101,535.381354L380.692343,537.629376L383.504584,538.629386L383.596441,541.173412L385.49011,542.597426L383.716562,543.437434L383.349133,545.97346L384.246507,547.197472L383.412727,549.461495L384.451419,549.9735L383.257276,551.781518L383.610573,554.501545L385.687956,558.325583L387.475637,559.573596L386.224967,561.293613L387.291923,563.349633L385.928198,564.445644L383.589375,563.069631L384.189979,558.605586L383.455122,555.325553L382.253914,553.221532L382.183255,555.253553L383.773089,558.149581L381.688639,561.949619L380.565156,561.701617L379.208498,564.597646L380.798332,566.173662L382.826254,563.365634ZM166.432113,663.374634L164.538444,663.430634L165.53474,662.254623ZM136.797598,633.886339L138.797257,635.654357L139.178817,641.862419L136.7764,647.134471L136.182862,649.638496L137.341675,650.406504L135.723577,653.214532L134.861533,651.406514L133.073853,642.798428L131.321502,639.910399L128.438602,638.942389L127.357514,636.062361L127.922789,635.558356L131.476952,636.430364L133.971226,632.694327L135.504533,632.150322ZM172.445221,628.758288L172.438155,630.278303L176.585856,636.662367L183.100645,638.222382L189.043093,641.574416L192.844564,644.910449L194.06697,643.678437L193.791399,644.070441L197.246639,647.086471L198.151078,646.942469L200.044748,649.782498L208.439074,657.630576L207.654756,660.318603L203.570647,662.574626L202.842857,665.526655L198.688089,668.222682L199.168572,669.278693L202.433033,670.862709L200.871462,673.166732L196.688431,672.97473L198.511441,675.03075L198.765814,676.430764L197.260771,677.638776L197.119452,680.95081L195.529618,682.630826L183.157172,674.96675L180.429723,676.190762L179.065998,674.742747L177.356043,678.054781L175.130275,676.294763L176.23256,667.214672L178.232218,660.95061L180.917272,660.750608L183.849634,657.694577L186.44283,656.142561L187.933742,657.134571L186.548819,653.126531L183.475139,649.902499L181.454283,648.95049L178.493658,649.606496L177.06634,649.118491L174.550868,645.302453L171.745694,643.102431L169.696574,643.00643L167.555596,644.726447L165.817377,647.150472L164.397125,645.902459L163.33017,641.926419L161.252786,639.710397L158.087249,635.334353L156.553942,636.222362L156.228909,633.438334L158.928095,633.96634L161.493028,631.670317L161.768599,630.0143L164.234609,627.774278L168.389376,627.838278ZM337.576031,410.668107L339.010415,412.96413L341.200854,414.892149L341.631876,416.516165L343.666864,418.068181L345.15071,420.700207L348.15373,422.404224L349.757697,421.900219L351.389927,424.188242L349.906081,426.748267L350.669202,427.500275L349.199488,430.364304L351.135553,430.444304L352.315564,432.172322L351.375795,433.780338L349.482125,434.324343L347.030247,433.676337L345.355622,431.692317L343.25704,432.612326L344.444116,435.148351L340.126833,440.948409L340.331745,441.756418L337.788009,441.516415L333.484857,443.788438L331.746638,443.092431L329.047453,447.836478L328.11475,447.292473L326.927673,448.948489L324.306213,449.628496L321.25373,447.196472L319.027962,447.364474L318.47682,449.260493L314.597623,450.884509L311.297834,449.9965L309.877581,452.764528L309.545483,457.340573L307.771934,457.636576L307.022945,459.436594L303.391057,460.0206L303.525309,461.540615L301.052233,462.764628L300.402168,464.404644L299.801564,460.868609L296.85507,461.236612L295.48428,459.628596L296.706686,456.916569L294.45972,455.052551L297.766575,449.428494L297.844301,446.556466L297.151839,444.868449L298.579157,442.668427L298.706344,440.540405L301.780024,440.99641L302.776321,435.98836L303.843276,433.780338L303.172013,432.300323L305.185803,427.308273L305.05155,425.836258L302.670332,422.420224L306.584857,418.692187L306.309286,417.404174L301.3702,414.420144L301.115827,411.180112L304.450946,409.820098L306.139704,410.780108L308.132296,409.612096L307.086539,407.884079L308.344274,404.95605L306.330484,402.588026L308.111099,401.812018L307.849659,398.243982L308.747032,396.691967L307.55289,395.859959L307.072407,393.515935L308.238285,392.051921L310.025966,393.459935L310.124889,394.97195L312.265866,397.459975L313.248031,397.243972L313.636657,401.076011L321.091214,402.772028L322.772906,402.04402L323.861059,403.692037L326.192816,404.820048L324.991608,408.916089L323.917587,409.764098L325.571014,412.164122L328.30553,412.524125L330.467705,414.612146L333.357671,413.99614L333.831088,413.052131L333.272879,409.828098L334.919241,409.452095ZM112.723971,39.616396L114.864948,40.544405L115.974299,43.128431L114.059432,45.800458L117.34509,49.480495L122.390165,48.528485L124.015329,49.728497L124.820845,51.96052L124.121318,53.512535L126.643855,55.416554L127.795602,58.04058L131.257908,62.03262L132.233007,62.152622L133.201039,69.216692L134.557698,70.792708L132.600435,73.192732L130.141491,73.088731L130.035502,75.832758L132.981995,79.080791L133.709786,80.600806L133.024391,81.99282L131.286172,82.272823L131.561743,83.96884L129.63981,84.592846L127.583624,83.656837L127.315119,81.864819L125.92313,82.00882L123.753889,78.624786L120.814462,77.832778L122.058066,75.120751L120.171462,73.072731L118.687617,69.544695L116.271068,68.544685L112.63918,67.98468L111.275455,70.632706L109.191005,68.584686L109.932928,67.656677L108.272434,66.392664L105.820556,61.400614L103.488799,61.536615L101.149976,63.904639L100.88147,67.232672L95.744538,65.168652L94.628121,65.816658L92.402353,64.088641L91.815881,65.720657L89.392266,66.776668L87.569256,66.584666L86.926256,67.824678L84.050422,64.552646L80.701171,66.00066L76.913832,64.816648L75.295734,62.520625L75.783283,58.864589L74.6598,57.376574L71.423603,56.568566L73.133559,58.904589L72.116065,60.816608L69.374483,59.352594L69.325022,57.480575L67.219374,56.256563L65.756727,57.128571L60.966025,51.104511L58.358697,48.896489L58.217378,45.912459L56.528621,44.824448L55.164896,41.96842L56.797126,41.056411L59.06529,37.776378L58.097257,35.424354L60.633927,34.344343L61.404113,31.688317L64.145694,30.592306L66.943803,34.176342L68.752681,32.776328L71.140966,34.912349L72.603614,34.240342L77.366051,38.04838L79.189062,38.120381L81.648006,39.768398L81.718665,41.472415L84.163477,45.168452L86.855597,45.328453L88.982442,47.176472L91.363661,46.768468L91.377793,43.97644L93.370385,43.336433L96.295681,41.384414L95.094473,39.672397L96.359274,37.240372L98.387197,37.072371L101.100514,35.160352L101.192371,32.584326L103.12137,28.744287L107.353863,30.536305L108.590401,31.792318L108.244171,34.416344L110.851499,38.416384ZM360.978395,549.573496L358.335737,551.517515L360.10222,554.869549L357.947111,558.97359L357.346507,564.901649L355.806134,566.597666L358.180287,567.725677L358.180287,569.605696L359.664132,571.813718L358.519451,573.421734L353.064552,574.661747L352.562871,576.629766L354.067915,578.829788L352.145981,581.101811L350.372433,580.285803L346.754676,580.781808L346.026885,580.165802L343.143985,581.237812L341.05247,580.213802L339.088141,581.309813L338.565262,583.061831L340.897019,585.597856L334.862714,590.933909L333.393,591.181912L329.082782,593.845938L327.514145,589.869899L322.5044,588.229882L316.816326,587.717877L313.021921,588.141881L312.597965,589.317893L310.633636,589.893899L307.446901,588.925889L305.666286,587.149871L304.429748,587.96588L304.019924,588.501885L301.801222,586.405864L301.129959,584.597846L299.017245,584.421844L300.939178,582.493825L298.042147,580.157802L296.289796,580.789808L295.533741,577.645776L294.530379,579.261793L292.686171,577.477775L292.94761,575.797758L291.407237,574.917749L292.142094,570.621706L297.11651,568.653687L298.324784,569.501695L300.720135,568.829688L301.539783,567.349673L304.783045,567.485675L308.00511,565.149651L308.492659,563.909639L310.668966,562.893629L310.584174,561.605616L312.237602,561.157612L313.657855,563.533635L316.039073,564.213642L320.638994,563.493635L320.886302,566.02966L322.292422,567.165672L323.698543,565.925659L325.238916,567.445674L329.372485,565.405654L331.449869,562.389624L326.588508,556.069561L326.652102,554.869549L324.39807,554.205542L325.620476,551.629516L327.966365,550.469505L331.555858,550.357504L331.598254,548.509485L334.113725,547.901479L335.004032,548.95749L336.989559,548.557486L337.583097,549.525495L338.607657,547.693477L340.550788,547.341473L343.29237,545.101451L344.649028,545.701457L348.083071,544.141441L349.687037,542.677427L350.457224,543.97344L352.188377,543.053431L354.696783,543.99744L357.67154,543.133431L358.653704,542.101421L359.791319,542.693427L359.628802,545.821458ZM257.780471,48.096481L258.769701,50.208502L257.462504,51.880519L262.224942,52.608526L264.245798,57.95258L262.754887,59.9606L264.443644,61.352614L263.673458,62.272623L264.634424,64.144641L263.518007,68.848688L264.182205,71.128711L265.89216,68.800688L268.146192,68.920689L269.234345,70.376704L271.806344,69.912699L274.668047,70.488705L275.134398,72.544725L277.444957,72.768728L277.953704,71.640716L281.380681,72.568726L281.557329,74.400744L279.338627,75.920759L278.738023,77.464775L282.596021,78.632786L285.146822,80.880809L290.340282,83.696837L292.855753,81.912819L295.660928,85.832858L295.759851,88.96889L292.502457,89.304893L291.880655,90.632906L288.220502,91.832918L289.506502,92.840928L289.838601,95.888959L291.103402,98.880989L290.538128,100.481005L288.948293,99.544995L286.637734,100.641006L283.246087,100.065001L279.967495,102.585026L277.96077,100.905009L277.664001,96.912969L274.244091,97.344973L273.184201,94.368944L271.064422,94.216942L272.060718,92.224922L271.022026,90.95291L268.20272,90.120901L266.72594,91.880919L264.097414,90.248902L262.684227,88.504885L258.027779,88.856889L254.961165,92.712927L255.590032,93.98494L253.095759,96.95297L250.078606,97.512975L248.835002,99.152992L246.340729,98.480985L246.270069,96.448964L244.235081,96.224962L244.475323,94.328943L242.405005,94.760948L238.80138,93.304933L238.822578,89.152892L239.564501,88.744887L239.86127,86.728867L241.507632,85.03285L242.087038,83.00883L236.130458,79.9768L235.268415,78.088781L236.858249,72.880729L235.445063,72.216722L236.073931,71.02471L235.487458,65.736657L238.15838,65.136651L239.37372,62.736627L241.71961,60.576606L241.323917,58.832588L242.454466,55.904559L240.299357,53.728537L241.239126,51.888519L239.557435,49.9605L240.334687,47.760478L242.284884,46.360464L247.18864,49.792498L248.008288,51.464515L249.633453,50.640506L252.318506,51.448514L254.007264,50.864509L254.176846,49.232492L255.491109,49.424494ZM151.57246,33.920339L152.688877,35.784358L154.306976,35.416354L154.957041,37.504375L157.211073,38.752388L157.514908,40.688407L155.564711,40.728407L155.070096,42.98443L157.924732,45.176452L156.744722,46.256463L158.673721,48.336483L162.764895,51.648516L162.87795,54.208542L161.217456,55.504555L161.726203,57.184572L163.29484,56.728567L165.167312,60.624606L163.132324,60.384604L162.242016,64.792648L155.119558,59.264593L153.642778,60.416604L154.695602,63.352634L153.416668,65.776658L155.13369,67.904679L155.663634,72.360724L152.264921,75.272753L150.788142,73.208732L145.474562,71.672717L146.315407,73.848738L144.450002,74.672747L139.553311,73.352734L135.815434,73.176732L134.557698,70.792708L133.201039,69.216692L132.233007,62.152622L131.257908,62.03262L127.795602,58.04058L126.643855,55.416554L124.121318,53.512535L124.820845,51.96052L124.015329,49.728497L122.390165,48.528485L117.34509,49.480495L114.059432,45.800458L115.974299,43.128431L114.864948,40.544405L112.723971,39.616396L114.857882,37.336373L114.405662,34.288343L118.065815,29.648296L118.963188,29.9523L124.25557,34.98435L129.293579,41.056411L130.162689,41.01641L133.596731,44.03244L135.864895,43.208432L135.568126,40.560406L136.536159,38.528385L137.461796,32.880329L140.231641,29.560296L145.516957,27.720277L148.322132,27.816278L147.594341,31.104311L148.640099,32.368324ZM238.412754,606.486065L238.751919,607.382074L242.150631,606.286063L243.789927,606.526065L244.899279,604.446044L247.753915,606.00606L248.545299,607.086071L250.361243,606.854069L252.375034,608.414084L256.317823,610.334103L254.643198,615.942159L252.95444,617.270173L255.554703,618.918189L257.342383,622.478225L259.652943,622.01422L261.313437,623.670237L263.440282,622.182222L265.616589,623.374234L266.4645,628.526285L265.842699,629.846298L263.306029,632.574326L261.242777,630.670307L260.599778,632.04632L257.427175,633.902339L256.021054,632.886329L253.653967,634.646346L250.509628,633.02233L252.410363,632.04632L249.986749,629.9823L248.382783,630.214302L248.382783,628.838288L246.001564,626.310263L244.425861,625.494255L235.586381,626.04626L235.628777,628.590286L228.011703,627.942279L226.450132,627.830278L222.839442,623.02223L220.281575,622.03022L211.449161,613.766138L212.247611,613.702137L210.848557,610.806108L207.640624,609.334093L206.849239,607.878079L208.735843,607.886079L214.925599,606.198062L217.222026,604.606046L220.465289,604.198042L222.104585,607.574076L224.259694,610.358104L223.729749,612.270123L227.474692,613.326133L228.039967,609.630096L233.71391,614.278143L238.455149,614.542145L239.840072,615.726157L239.67049,613.270133L237.218611,609.718097L237.571908,606.726067ZM239.592764,144.121441L241.394577,144.721447L241.281522,147.681477L243.818191,148.04948L244.213883,149.185492L242.765367,150.929509L243.994839,151.665517L246.955465,149.313493L251.110232,152.857529L253.449055,153.545535L255.879736,152.305523L257.709812,154.153542L258.289218,154.937549L253.731693,157.209572L250.000881,157.937579L247.789244,159.329593L241.882126,165.881659L238.363292,170.193702L237.345798,169.489695L235.508656,170.641706L236.194051,165.633656L237.147952,164.99365L238.751919,161.473615L237.995864,156.881569L235.861953,157.201572L235.211887,155.321553L233.254624,157.201572L232.788273,155.313553L229.898307,154.921549L230.018428,153.529535L227.75733,151.801518L227.644275,149.801498L227.743198,148.289483L229.61567,146.289463L230.301065,148.057481L231.707185,147.305473L232.80947,144.825448L235.579315,145.393454L235.515722,143.905439L236.964238,143.305433L237.762688,144.809448ZM221.390926,202.714027L219.744564,205.450055L218.055806,206.770068L218.218323,211.898119L215.964291,212.850129L215.01039,212.282123L212.791688,215.410154L212.452523,217.99418L213.321632,221.97022L217.222026,224.370244L217.222026,225.770258L219.221685,228.826288L218.486828,229.842298L219.610311,232.330323L217.589455,233.114331L215.928961,235.450355L215.858302,237.090371L213.41349,238.266383L212.431325,237.746377L208.940755,238.906389L207.075349,236.138361L203.768494,237.242372L200.383912,237.594376L196.37753,235.442354L194.024574,237.186372L192.010784,236.514365L192.491267,234.618346L189.417587,232.290323L189.389324,231.00231L185.397073,231.338313L183.948557,229.370294L180.238943,229.802298L180.048163,228.114281L178.670306,227.490275L173.250737,227.618276L169.738969,226.00226L169.336211,224.842248L167.597992,224.99425L165.280367,222.530225L162.934477,221.842218L161.153863,218.210182L159.048215,216.874169L156.674063,217.690177L154.29991,214.162142L149.919032,212.434124L148.654231,211.146111L146.41433,211.538115L146.124627,209.706097L143.884727,207.314073L140.330564,206.570066L138.740729,204.938049L135.780104,205.546055L133.476611,204.698047L131.293238,202.178022L129.357173,201.370014L133.003193,199.449994L134.126676,197.433974L138.599411,196.585966L140.238707,191.305913L140.450685,189.113891L138.203719,186.689867L138.691268,183.497835L141.842673,184.529845L143.623288,183.217832L146.527385,182.273823L149.827175,182.785828L150.696285,183.529835L155.494052,182.665827L155.70603,184.04184L158.899831,185.081851L159.507501,186.489865L162.545851,186.865869L164.460719,185.897859L166.17774,186.329863L166.954992,182.657827L169.82376,179.9618L175.299857,177.561776L175.872197,174.201742L175.568362,171.601716L178.034372,169.9697L179.023603,168.089681L185.093238,170.817708L187.446193,170.873709L191.311257,172.233722L191.869465,174.841748L190.152444,175.00175L189.113752,177.481775L189.445851,180.585806L190.760114,181.577816L190.873169,183.377834L195.458958,185.649856L196.405793,189.345893L195.819321,190.99391L197.013463,193.705937L198.921265,190.913909L202.242252,194.937949L205.923603,195.169952L207.866734,194.225942L211.286644,198.873989L212.678633,198.273983L215.674587,202.106021L218.430301,201.162012L218.69174,202.202022ZM224.125441,147.137471L225.976715,149.409494L227.644275,149.801498L227.75733,151.801518L230.018428,153.529535L229.898307,154.921549L232.788273,155.313553L233.254624,157.201572L235.211887,155.321553L235.861953,157.201572L237.995864,156.881569L238.751919,161.473615L237.147952,164.99365L236.194051,165.633656L235.508656,170.641706L233.897624,171.96172L231.933295,169.369694L233.22636,167.689677L234.166129,164.625646L228.866681,164.625646L227.093132,162.841628L220.903377,159.545595L218.423235,158.801588L214.063555,154.457545L211.463293,152.433524L209.894656,152.249522L208.926623,150.0415L210.806161,149.721497L215.794708,152.841528L217.801433,151.201512L215.731115,147.729477L219.249949,149.297493L218.88252,146.265463L220.839783,145.529455L222.351892,147.321473ZM383.229012,566.485665L382.812123,567.333673L384.938968,569.589696L382.359903,573.00573L380.006948,578.445784L378.183938,577.269773L376.700092,577.493775L375.746191,574.877749L374.44606,575.237752L375.703796,576.613766L375.527148,579.133791L374.608576,580.349803L374.891214,588.213882L370.715248,590.813908L367.535579,589.581896L366.482756,587.445874L362.335054,585.781858L362.490505,582.933829L359.593473,583.237832L358.519451,582.629826L356.929617,579.093791L354.067915,578.829788L352.562871,576.629766L353.064552,574.661747L358.519451,573.421734L359.664132,571.813718L358.180287,569.605696L358.180287,567.725677L355.806134,566.597666L357.346507,564.901649L357.947111,558.97359L360.10222,554.869549L358.335737,551.517515L360.978395,549.573496L363.868361,549.813498L363.578658,551.421514L364.801064,554.501545L364.334713,555.237552L366.963239,556.701567L366.624074,558.213582L368.842777,559.933599L369.803743,559.709597L373.273115,561.461615L375.781521,561.861619L378.346454,566.301663L380.452102,566.829668ZM198.511441,93.568936L199.790374,97.944979L200.864396,97.144971L202.030274,98.400984L201.726439,100.457005L204.807185,103.337033L204.044065,105.521055L202.291714,103.95304L200.320319,104.209042L199.288693,108.337083L197.303167,109.369094L196.744958,110.697107L198.278265,112.98513L197.041727,116.209162L198.136946,118.03318L199.465341,121.481215L197.917903,122.345223L194.914882,121.281213L192.533663,122.545225L192.894025,120.98521L189.353994,121.649216L187.410863,120.545205L186.393369,118.857189L181.192844,115.633156L178.811625,115.345153L178.875218,113.065131L176.020582,111.169112L176.522263,108.273083L175.419978,105.585056L175.547165,103.321033L174.112781,102.137021L177.384307,101.681017L178.769229,96.448964L176.769571,91.864919L178.133295,90.720907L177.695208,88.440884L180.966734,85.97686L184.598622,83.96884L187.700566,84.888849L187.163555,83.088831L190.505741,84.896849L191.502037,84.648846L194.194157,86.04886L195.73453,91.488915ZM392.47125,516.677167L391.404295,515.525155L387.53923,517.213172L386.111912,516.925169L384.790583,518.157182L381.681574,517.637176L380.741805,519.709197L379.561794,518.813188L377.986092,521.533215L375.915774,521.365214L373.541621,523.317233L373.26605,519.613196L372.340413,517.98118L367.719294,517.95718L366.539283,515.97316L364.122735,515.493155L362.193735,512.077121L358.371067,509.677097L358.653704,509.277093L359.296704,508.309083L362.278527,507.493075L361.995889,504.573046L362.589428,502.557026L366.263712,501.261013L367.84648,495.732957L364.921185,491.900919L364.073273,486.164862L361.755648,486.924869L359.777187,485.540855L361.988823,481.724817L363.804768,481.156812L366.793657,481.556816L367.825283,483.196832L369.499908,482.900829L371.965918,484.052841L375.131455,483.516835L376.283202,481.96482L379.53353,480.748807L379.660717,478.164782L381.229354,478.308783L381.455464,476.292763L383.568177,475.548755L385.030825,476.596766L384.677528,478.068781L386.542934,480.908809L385.779814,481.444814L383.900276,477.652777L384.11932,479.252793L386.104846,482.548825L385.695022,483.676837L389.107867,486.556866L388.754571,489.060891L386.267363,488.532885L387.857197,487.03687L385.412385,485.284853L384.409023,487.460875L385.313462,488.364884L384.515012,490.268903L386.465209,491.844918L387.998516,491.556916L386.253231,496.076961L387.461505,497.900979L387.164736,495.460955L388.012648,494.97295L389.001878,496.772968L387.941989,498.572986L387.913725,501.853019L391.425493,508.077081L395.679183,513.349133L394.81714,514.877149ZM255.095417,267.97068L252.283177,272.306723L251.915748,274.362744L252.897913,277.922779L254.622,281.538815L259.031141,288.578886L262.260271,293.170932L266.676478,297.96298L269.580576,300.443004L278.052628,306.867069L275.424101,309.507095L272.117245,311.00311L271.332927,313.299133L269.707763,312.931129L269.114225,315.267153L268.16739,315.539155L267.587984,318.259183L266.259588,318.675187L263.496809,316.98717L262.309733,317.923179L259.730668,317.835178L258.797965,315.395154L256.960823,314.97115L255.38512,316.251163L251.788561,315.115151L249.937288,312.323123L250.622683,311.051111L248.707816,309.579096L245.245509,304.747047L246.708157,303.483035L245.478685,303.099031L245.358564,300.675007L243.973642,300.427004L243.853521,302.099021L242.023445,302.683027L235.021107,297.170972L224.090111,284.666847L220.804453,282.154822L218.840125,282.186822L218.515092,279.666797L215.264763,275.842758L215.625126,274.178742L213.554808,272.97873L212.056831,271.082711L213.731456,266.490665L216.628488,266.394664L217.971015,264.298643L220.196783,265.162652L222.592134,264.426644L222.097519,263.098631L224.542331,262.762628L225.679946,261.650617L227.587747,261.714617L228.478055,263.194632L230.074955,262.890629L234.413437,266.490665L232.936657,268.650687L239.006292,270.186702L241.465236,269.442694L244.093762,270.146701L244.15029,269.258693L246.969596,266.562666L251.611913,267.402674L252.219583,268.458685ZM351.29807,365.531655L352.011729,367.259673L349.270147,365.211652ZM317.529985,360.803608L319.564973,360.611606L321.529302,361.939619L324.341542,360.427604L325.3873,363.099631L323.974114,366.291663L325.401432,367.507675L328.093552,366.803668L330.142672,367.195672L331.329748,366.227662L332.855989,366.95567L335.011098,365.291653L336.254702,366.387664L337.978789,364.827648L339.999646,365.179652L341.879183,367.371674L345.539336,369.915699L346.78294,374.403744L350.450158,380.387804L355.269123,386.763868L357.014408,387.95588L355.890925,390.115901L358.123759,389.819898L359.204847,388.707887L359.452154,390.659907L361.444747,392.795928L360.504978,394.075941L357.311177,394.315943L354.590794,395.499955L343.659798,397.843978L341.631876,397.619976L339.660481,400.324003L340.889953,401.516015L340.586118,403.772038L337.427647,408.404084L337.576031,410.668107L334.919241,409.452095L333.272879,409.828098L333.831088,413.052131L333.357671,413.99614L330.467705,414.612146L328.30553,412.524125L325.571014,412.164122L323.917587,409.764098L324.991608,408.916089L326.192816,404.820048L323.861059,403.692037L322.772906,402.04402L321.091214,402.772028L313.636657,401.076011L313.248031,397.243972L312.265866,397.459975L310.124889,394.97195L310.025966,393.459935L308.238285,392.051921L305.171671,393.00393L303.22854,392.02792L303.00243,389.251893L300.197256,387.771878L296.713752,388.219882L295.86584,384.539845L294.106423,381.891819L292.297545,381.883819L291.082205,380.291803L291.696941,378.371784L290.142436,375.99576L288.686854,376.283763L289.421711,374.091741L288.510206,372.059721L293.541149,369.227692L297.561663,368.675687L298.840597,367.04367L300.76253,362.387624L301.772958,361.627616L304.380287,363.075631L304.881968,361.459615L308.054571,360.491605L308.047505,361.771618L312.004427,363.843638L315.403139,360.347603ZM377.802377,432.668327L376.240807,431.428314L374.742829,428.484285L370.934292,426.948269L368.503612,427.508275L366.193052,427.068271L365.578316,427.924279L362.525834,428.340283L362.412779,431.836318L359.452154,431.804318L356.15943,434.324343L352.315564,432.172322L351.135553,430.444304L349.199488,430.364304L350.669202,427.500275L349.906081,426.748267L351.389927,424.188242L349.757697,421.900219L348.15373,422.404224L345.15071,420.700207L343.666864,418.068181L341.631876,416.516165L341.200854,414.892149L339.010415,412.96413L337.576031,410.668107L337.427647,408.404084L340.586118,403.772038L340.889953,401.516015L339.660481,400.324003L341.631876,397.619976L343.659798,397.843978L354.590794,395.499955L357.311177,394.315943L360.504978,394.075941L361.444747,392.795928L363.345482,393.451935L365.740833,391.97192L365.719635,393.619936L368.418821,396.411964L367.733425,397.731977L369.683622,400.180002L370.849501,400.268003L370.545666,401.98002L368.892238,403.364034L369.32326,408.476085L370.185304,411.908119L372.941017,418.892189L375.611939,423.740237L377.569202,426.540265L377.046323,427.340273ZM295.166313,127.433274L296.586565,127.04127L296.593631,128.745287ZM294.869544,124.097241L297.286092,124.681247L295.152181,125.401254ZM304.874902,121.457215L302.083859,125.297253L301.886013,124.841248L305.171671,120.337203ZM314.371514,117.945179L315.685777,119.9692L313.389349,118.377184ZM304.486276,118.169182L304.655858,118.897189L302.769255,122.641226L297.738312,123.425234L301.200618,121.145211L301.652838,119.321193L304.104716,116.585166ZM319.557907,116.633166L317.699567,119.409194L316.922315,118.97719L318.490951,116.441164ZM306.182099,113.04913L305.553231,114.545145L303.567705,114.761148L304.832507,112.809128ZM307.079473,116.329163L305.998385,119.569196L305.454308,118.609186L306.422341,115.321153L308.598648,112.425124ZM299.243355,106.345063L297.003455,107.833078L297.385015,106.297063ZM300.656541,105.233052L303.786749,107.873079L304.048188,109.241092L307.55289,107.761078L304.387353,111.457115L303.03776,111.265113L302.543145,112.681127L296.671356,116.505165L297.554597,112.881129L299.660245,111.209112L298.614487,110.665107L300.373904,108.601086ZM317.212018,101.529015L314.053547,103.657037L312.082152,103.625036L317.388666,100.921009ZM326.369465,98.96899L323.924652,100.809008L320.285698,100.945009L319.628566,99.864999ZM272.138443,126.913269L271.000828,127.545275L270.44262,126.00126L267.71517,126.753268L268.958774,128.00928L267.149896,127.937279L266.697676,125.945259L265.256226,125.153252L266.72594,124.497245L267.503192,122.601226L267.354808,119.721197L261.843382,117.641176L259.93558,117.553176L258.183229,115.769158L255.38512,116.321163L252.466891,115.385154L251.795627,112.841128L253.908341,112.201122L254.664395,107.513075L256.607527,109.057091L259.836657,110.161102L261.22158,109.801098L268.51362,111.233112L270.308367,109.345093L271.820476,109.921099L274.406607,109.513095L275.37464,110.249102L277.452023,107.369074L277.183518,104.593046L279.585935,103.697037L279.967495,102.585026L283.246087,100.065001L286.637734,100.641006L288.948293,99.544995L290.538128,100.481005L291.103402,98.880989L289.838601,95.888959L289.506502,92.840928L288.220502,91.832918L291.880655,90.632906L292.502457,89.304893L295.759851,88.96889L296.763213,89.136891L298.381311,86.97687L300.713069,85.800858L302.189848,87.240872L301.497387,89.03289L304.330825,89.496895L305.221133,88.296883L310.753757,88.528885L317.091897,86.088861L319.331797,86.248862L321.47984,89.600896L322.617455,89.544895L323.903455,91.944919L326.341201,91.864919L327.167915,94.776948L324.949212,97.136971L325.740597,94.688947L319.218742,92.656927L318.780655,93.680937L315.586854,92.688927L314.103008,93.752938L316.491293,94.088941L314.159536,98.784988L310.6619,98.112981L310.372197,99.728997L308.973142,99.736997L307.277319,104.01704L303.574771,101.785018L302.839914,103.849038L299.872223,102.609026L299.872223,104.665047L296.445246,102.945029L295.67506,104.569046L296.063686,107.425074L295.540807,111.03311L297.102378,111.98512L295.957697,115.369154L296.240334,117.417174L294.38906,118.929189L292.488325,118.577186L288.814041,119.273193L287.436184,121.121211L284.242383,121.705217L281.500802,120.553206L280.144143,121.185212L274.872959,120.617206L275.042541,122.945229L270.923103,123.393234ZM296.982257,327.419274L293.088929,332.395324L294.134687,333.95534L291.435501,335.98736L290.297886,335.051351L285.189218,335.763358L284.150526,336.731367L281.345351,337.083371L281.691582,338.707387L284.14346,339.851399L284.567416,341.95542L281.338286,342.587426L280.186539,345.347453L277.911309,347.051471L279.366891,348.867489L277.00687,348.899489L276.900881,346.715467L273.664684,344.595446L272.343355,342.411424L273.170069,338.539385L270.400224,336.859369L269.008236,341.02741L267.630379,340.747407L267.630379,342.355424L265.991083,343.603436L262.966865,341.539415L261.645535,337.307373L262.557041,335.187352L258.769701,334.347343L257.066812,329.763298L256.974955,321.307213L255.526439,320.275203L255.575901,318.587186L256.876032,318.483185L256.960823,314.97115L258.797965,315.395154L259.730668,317.835178L262.309733,317.923179L263.496809,316.98717L266.259588,318.675187L267.587984,318.259183L268.16739,315.539155L269.114225,315.267153L269.707763,312.931129L271.332927,313.299133L272.117245,311.00311L275.424101,309.507095L278.052628,306.867069L283.719504,310.515105L283.882021,314.371144L286.468152,318.171182L290.220161,321.947219ZM229.827648,659.342593L234.09547,664.446644L236.14459,665.782658L242.525126,672.086721L245.231377,673.774738L242.942016,677.310773L240.567863,678.03878L238.483413,681.862819L239.719951,683.646836L236.971304,685.558856L235.869019,685.390854L225.623419,688.774888L222.507343,690.0389L221.793684,685.494855L224.083046,684.294843L223.20687,682.430824L221.998596,684.01484L219.857619,682.03882L216.699147,683.590836L214.346192,683.278833L213.491215,682.142821L209.01848,680.126801L209.534293,674.878749L209.08914,673.638736L210.509392,672.238722L214.967994,671.382714L216.529565,669.942699L223.249266,665.814658L224.782573,657.782578L225.835396,656.718567ZM131.561743,83.96884L132.303666,85.512855L136.875323,85.504855L139.72996,86.872869L142.99442,86.232862L144.548925,86.616866L145.65121,85.376854L151.494735,86.376864L149.099384,88.872889L148.512912,91.440914L149.304296,92.696927L148.774351,95.360954L151.056647,98.368984L151.848032,97.880979L155.317404,99.993L155.373931,100.833008L158.016589,101.185012L160.581522,98.176982L163.407895,97.712977L166.135344,99.672997L168.007816,99.920999L168.219794,98.840988L170.297178,98.528985L171.046166,101.217012L172.395759,102.521025L174.112781,102.137021L175.547165,103.321033L175.419978,105.585056L176.522263,108.273083L176.020582,111.169112L178.875218,113.065131L175.978186,114.833148L176.705977,117.217172L180.203613,121.98522L181.9277,123.241232L183.298491,126.257263L182.95226,127.769278L184.153469,128.465285L182.613096,130.817308L182.902799,132.273323L177.356043,130.097301L175.62489,130.745307L175.716747,135.833358L173.943198,136.521365L173.57577,139.065391L170.629276,139.633396L169.760167,138.153382L167.923025,138.473385L165.718454,135.713357L162.319741,132.593326L160.115171,133.369334L158.977556,132.737327L158.391084,130.097301L156.638733,128.513285L155.331536,128.681287L150.851735,125.529255L151.303955,124.889249L148.625967,122.201222L147.573143,123.609236L146.845352,121.96122L144.259221,120.745207L141.475245,121.065211L140.252839,119.673197L137.716169,121.057211L136.698675,123.425234L133.942962,122.857229L132.593369,123.825238L130.367601,123.201232L128.16303,125.417254L126.241097,125.217252L124.566471,128.209282L125.386119,130.95331L122.62334,131.697317L122.708132,134.96135L120.19266,135.297353L119.429539,133.409334L116.052024,131.169312L111.77007,130.697307L109.692686,127.073271L108.604533,128.497285L105.806424,129.161292L98.380131,126.337263L97.87845,123.809238L101.29836,123.185232L101.771778,121.097211L100.761349,115.449154L102.54903,113.865139L105.742831,115.569156L107.806083,115.161152L106.527149,111.169112L108.201775,110.385104L107.982731,103.161032L105.347139,102.305023L106.046666,100.753008L103.644249,97.824978L106.315171,97.056971L108.653995,97.296973L109.49484,93.344933L112.22229,92.248922L112.370674,90.720907L114.221948,87.504875L113.458828,86.608866L116.09442,84.840848L114.151289,80.864809L112.476663,75.97676L110.448741,73.440734L111.275455,70.632706L112.63918,67.98468L116.271068,68.544685L118.687617,69.544695L120.171462,73.072731L122.058066,75.120751L120.814462,77.832778L123.753889,78.624786L125.92313,82.00882L127.315119,81.864819L127.583624,83.656837L129.63981,84.592846ZM252.332638,573.189732L254.120319,578.149781L251.449397,579.621796L251.032507,581.797818L248.43931,583.829838L247.859904,586.317863L246.326597,589.173892L247.739783,591.861919L247.513673,593.613936L248.750211,594.285943L249.280156,596.669967L251.244485,597.461975L252.099462,599.077991L251.060771,601.214012L250.417771,605.214052L247.753915,606.00606L244.899279,604.446044L243.789927,606.526065L242.150631,606.286063L238.751919,607.382074L238.412754,606.486065L240.447742,606.798068L239.762347,603.302033L238.151314,600.758008L235.847821,602.262023L234.865656,600.750008L231.721317,598.733987L231.445746,596.637966L228.598176,596.02196L226.478396,593.98994L226.400671,592.181922L224.429276,592.077921L225.135869,588.453885L224.535265,587.269873L226.118034,584.229842L224.775507,583.429834L225.284254,579.9738L224.160771,578.357784L221.984464,578.181782L221.779552,575.717757L225.171199,572.98173L228.55578,574.789748L231.269097,570.445704L231.353889,568.605686L234.151997,568.181682L236.080997,569.693697L238.172512,570.061701L239.804742,569.325693L242.913752,570.645706L245.068861,573.01373L248.919793,571.837718ZM260.57858,137.02537L260.31714,138.641386L258.176163,140.369404L259.334976,146.153462L258.402273,149.617496L258.889822,153.137531L257.709812,154.153542L255.879736,152.305523L253.449055,153.545535L251.110232,152.857529L246.955465,149.313493L243.994839,151.665517L242.765367,150.929509L244.213883,149.185492L243.818191,148.04948L241.281522,147.681477L241.394577,144.721447L239.592764,144.121441L238.970962,141.065411L237.147952,139.665397L236.483755,137.489375L236.024469,136.209362L237.628436,135.393354L241.4935,136.257363L241.147269,135.585356L243.599147,134.169342L246.99786,132.849328L247.541937,133.377334L250.163397,131.817318L249.88076,133.945339L251.696704,135.313353L253.18055,138.321383L255.512307,138.177382L259.483361,136.393364ZM235.445063,72.216722L236.858249,72.880729L235.268415,78.088781L236.130458,79.9768L242.087038,83.00883L241.507632,85.03285L239.86127,86.728867L239.564501,88.744887L238.462215,87.704877L234.51236,88.04088L232.23713,90.856909L233.388877,91.384914L232.745877,93.056931L232.724679,93.080931L232.915459,96.792968L231.919163,99.096991L228.859615,97.144971L227.714934,100.265003L226.428935,100.049L225.814199,102.473025L224.471672,102.417024L223.842804,100.009L221.200146,99.584996L220.472355,100.849008L218.762399,98.056981L214.14128,96.00896L209.583755,90.416904L208.884228,90.240902L206.736185,88.04888L205.803482,84.144841L208.092843,80.704807L206.644327,80.128801L206.686723,77.520775L208.25536,76.688767L207.774876,75.280753L209.392975,73.680737L209.534293,71.240712L210.445798,71.208712L211.180655,68.808688L214.600566,67.624676L214.883203,66.848668L218.910784,68.608686L219.998937,71.544715L219.292344,78.152782L221.228409,78.712787L221.892607,76.896769L225.157067,76.136761L230.823944,72.488725L231.940361,70.904709ZM208.926623,150.0415L209.894656,152.249522L211.463293,152.433524L214.063555,154.457545L218.423235,158.801588L220.903377,159.545595L227.093132,162.841628L228.866681,164.625646L234.166129,164.625646L233.22636,167.689677L231.933295,169.369694L228.803088,171.457715L229.085725,173.369734L227.517088,176.273763L227.517088,178.849788L225.849528,181.545815L224.916825,181.169812L222.924233,184.481845L221.461585,192.697927L221.793684,195.777958L220.408761,197.153972L222.033925,201.426014L221.390926,202.714027L218.69174,202.202022L218.430301,201.162012L215.674587,202.106021L212.678633,198.273983L211.286644,198.873989L207.866734,194.225942L205.923603,195.169952L202.242252,194.937949L198.921265,190.913909L197.013463,193.705937L195.819321,190.99391L196.405793,189.345893L195.458958,185.649856L190.873169,183.377834L190.760114,181.577816L189.445851,180.585806L189.113752,177.481775L190.152444,175.00175L191.869465,174.841748L191.311257,172.233722L187.446193,170.873709L185.093238,170.817708L179.023603,168.089681L180.111756,165.881659L182.648425,163.233632L179.277976,160.937609L179.553548,160.081601L176.663582,160.889609L172.120188,158.057581L169.661244,158.00958L166.813674,156.385564L164.559642,155.897559L164.9624,149.881499L167.894761,148.04148L169.265552,148.249482L166.679421,144.545445L165.18851,145.145451L163.810653,147.385474L160.454336,147.553476L160.327149,148.545485L157.479579,149.849498L154.653206,148.529485L155.06303,146.897469L153.515591,145.841458L153.974877,143.881439L157.663293,142.537425L160.235292,140.817408L161.146797,138.417384L163.951972,138.04938L165.718454,135.713357L167.923025,138.473385L169.760167,138.153382L170.629276,139.633396L173.57577,139.065391L173.943198,136.521365L175.716747,135.833358L178.140361,134.913349L181.093921,136.95337L181.16458,137.945379L184.061612,140.369404L186.93038,139.529395L190.336158,141.169412L191.063949,142.465425L193.918586,143.01743L195.73453,145.497455L195.360035,146.497465L199.564264,148.657487L202.334109,149.497495L203.28801,148.849488L207.061217,150.129501ZM335.463318,353.355534L332.340176,354.563546L328.906134,354.883549L325.61341,353.211532L324.101301,354.387544L321.96739,353.115531L320.271566,354.03554L319.324731,358.02758L317.529985,360.803608L315.403139,360.347603L312.004427,363.843638L308.047505,361.771618L308.054571,360.491605L304.881968,361.459615L304.380287,363.075631L301.772958,361.627616L300.76253,362.387624L299.54719,359.595596L294.572775,360.931609L291.99371,357.819578L290.149502,356.419564L287.740019,356.539565L286.079525,355.395554L285.372932,353.123531L285.662635,350.587506L282.384043,348.339483L279.366891,348.867489L277.911309,347.051471L280.186539,345.347453L281.338286,342.587426L284.567416,341.95542L284.14346,339.851399L281.691582,338.707387L281.345351,337.083371L284.150526,336.731367L285.189218,335.763358L290.297886,335.051351L291.435501,335.98736L294.134687,333.95534L293.088929,332.395324L296.982257,327.419274L302.748057,332.03532L307.793132,335.619356L310.336867,336.651367L315.042777,340.163402L320.787379,345.259453L325.048135,348.131481L326.913541,348.211482L327.323365,346.875469L330.432375,352.443524L327.938101,350.923509L328.892002,353.059531L330.842199,352.691527ZM265.842699,629.846298L268.93051,634.062341L270.230642,637.942379L268.096731,639.00639L267.460797,640.398404L267.701038,644.574446L266.4645,644.510445L262.889139,642.310423L256.360219,640.862409L253.237077,638.95839L249.492134,637.494375L245.266707,638.398384L244.468257,637.942379L240.490138,638.654387L237.564842,640.062401L234.342778,640.326403L232.385515,639.366394L229.792318,637.894379L227.121396,640.126401L225.679946,640.470405L223.023156,639.398394L222.005662,638.222382L221.949134,635.910359L223.326991,636.134361L224.047716,634.102341L227.969308,629.942299L228.011703,627.942279L235.628777,628.590286L235.586381,626.04626L244.425861,625.494255L246.001564,626.310263L248.382783,628.838288L248.382783,630.214302L249.986749,629.9823L252.410363,632.04632L250.509628,633.02233L253.653967,634.646346L256.021054,632.886329L257.427175,633.902339L260.599778,632.04632L261.242777,630.670307L263.306029,632.574326ZM270.767653,610.326103L271.566103,613.110131L272.71785,614.422144L272.470542,616.782168L269.969202,616.182162L267.319478,618.110181L266.810731,620.286203L270.138785,623.510235L272.463476,622.542225L274.27942,624.494245L277.699331,625.878259L277.96077,628.278283L279.098385,628.526285L278.193946,631.04631L277.155254,630.654307L275.98231,633.118331L277.084595,634.166342L272.675454,635.606356L272.07485,637.262373L270.230642,637.942379L268.93051,634.062341L265.842699,629.846298L266.4645,628.526285L265.616589,623.374234L263.440282,622.182222L261.313437,623.670237L259.652943,622.01422L257.342383,622.478225L255.554703,618.918189L252.95444,617.270173L254.643198,615.942159L256.317823,610.334103L252.375034,608.414084L250.361243,606.854069L248.545299,607.086071L247.753915,606.00606L250.417771,605.214052L251.060771,601.214012L252.099462,599.077991L252.424495,597.925979L255.879736,599.789998L255.378055,600.854009L256.847768,603.286033L259.426833,603.446034L260.140492,606.054061L261.659667,606.550066L261.772722,608.758088L263.440282,609.390094L263.631062,611.318113L265.015985,610.590106L267.114566,611.894119L269.276741,611.686117ZM259.278448,663.390634L257.582625,666.03066L258.33868,669.846698L257.533164,671.918719L254.614934,675.062751L250.417771,676.470765L247.125047,673.95874L245.231377,673.774738L242.525126,672.086721L236.14459,665.782658L234.09547,664.446644L229.827648,659.342593L230.03256,658.438584L234.809129,655.598556L236.130458,656.694567L237.027831,655.606556L237.183282,652.566526L239.769413,652.518525L240.956489,653.558536L242.25662,649.806498L244.545982,651.310513L245.570542,652.614526L254.212176,657.95058ZM206.785646,37.720377L208.389612,37.736377L210.000645,41.360414L211.208919,42.192422L211.51982,44.944449L209.760403,46.240462L209.329381,48.592486L207.80314,49.272493L207.485173,51.97652L206.050789,53.456535L206.43235,54.624546L203.825021,56.304563L203.66957,58.672587L205.450185,61.192612L206.488877,61.312613L205.153416,63.432634L205.153416,65.496655L206.375822,66.96067L207.110679,69.496695L209.534293,71.240712L209.392975,73.680737L207.774876,75.280753L208.25536,76.688767L206.686723,77.520775L206.644327,80.128801L208.092843,80.704807L205.803482,84.144841L206.736185,88.04888L208.884228,90.240902L207.80314,92.216922L203.210285,94.03294L200.610022,92.680927L198.511441,93.568936L195.73453,91.488915L194.194157,86.04886L191.502037,84.648846L190.505741,84.896849L187.163555,83.088831L185.715039,81.752818L187.778291,78.432784L183.658854,74.088741L183.877897,72.344723L182.514173,72.568726L182.909865,67.04867L181.206975,67.680677L180.189481,66.536665L177.575087,65.640656L176.550527,64.344643L175.801538,59.9766L178.076768,59.9526L179.108394,57.248572L177.850658,55.672557L179.277976,54.672547L178.097966,53.504535L178.203955,51.816518L180.578108,53.192532L182.061953,53.056531L183.63059,55.944559L185.22749,54.880549L185.898754,52.752528L184.973117,51.768518L187.142358,51.328513L186.47816,50.176502L187.785357,48.696487L187.234215,47.368474L188.548478,46.632466L188.166918,44.824448L189.071357,42.792428L188.52728,40.680407L189.749686,38.216382L190.625862,38.248382L189.255071,35.904359L190.117115,34.664347L196.561244,37.488375L197.840177,38.776388L198.716353,37.504375L204.934372,38.96039ZM244.545982,651.310513L242.25662,649.806498L240.956489,653.558536L239.769413,652.518525L237.183282,652.566526L237.027831,655.606556L236.130458,656.694567L234.809129,655.598556L230.03256,658.438584L229.827648,659.342593L225.835396,656.718567L223.326991,654.574546L220.620739,650.678507L215.596862,647.294473L217.751971,643.878439L221.263739,646.262463L224.563529,646.318463L224.8391,644.630446L226.909418,643.590436L224.87443,641.02241L225.679946,640.470405L227.121396,640.126401L229.792318,637.894379L232.385515,639.366394L233.028514,641.942419L236.618007,642.638426L239.105215,645.326453L241.599489,647.00647ZM220.472355,100.849008L219.355938,103.617036L217.518795,105.561056L217.554125,107.489075L214.840808,106.793068L212.445457,108.521085L212.565578,109.937099L209.823996,111.065111L206.566602,110.665107L205.386592,109.849098L204.044065,105.521055L204.807185,103.337033L201.726439,100.457005L202.030274,98.400984L200.864396,97.144971L199.790374,97.944979L198.511441,93.568936L200.610022,92.680927L203.210285,94.03294L207.80314,92.216922L208.884228,90.240902L209.583755,90.416904L214.14128,96.00896L218.762399,98.056981ZM175.801538,59.9766L176.550527,64.344643L177.575087,65.640656L180.189481,66.536665L181.206975,67.680677L182.909865,67.04867L182.514173,72.568726L183.877897,72.344723L183.658854,74.088741L187.778291,78.432784L185.715039,81.752818L187.163555,83.088831L187.700566,84.888849L184.598622,83.96884L180.966734,85.97686L177.695208,88.440884L178.133295,90.720907L176.769571,91.864919L178.769229,96.448964L177.384307,101.681017L174.112781,102.137021L172.395759,102.521025L171.046166,101.217012L170.297178,98.528985L168.219794,98.840988L168.007816,99.920999L166.135344,99.672997L163.407895,97.712977L160.581522,98.176982L158.016589,101.185012L155.373931,100.833008L155.317404,99.993L151.848032,97.880979L151.056647,98.368984L148.774351,95.360954L149.304296,92.696927L148.512912,91.440914L149.099384,88.872889L151.494735,86.376864L145.65121,85.376854L144.548925,86.616866L142.99442,86.232862L139.72996,86.872869L136.875323,85.504855L132.303666,85.512855L131.561743,83.96884L131.286172,82.272823L133.024391,81.99282L133.709786,80.600806L132.981995,79.080791L130.035502,75.832758L130.141491,73.088731L132.600435,73.192732L134.557698,70.792708L135.815434,73.176732L139.553311,73.352734L144.450002,74.672747L146.315407,73.848738L145.474562,71.672717L150.788142,73.208732L152.264921,75.272753L155.663634,72.360724L155.13369,67.904679L153.416668,65.776658L154.695602,63.352634L153.642778,60.416604L155.119558,59.264593L162.242016,64.792648L163.132324,60.384604L165.167312,60.624606L163.29484,56.728567L164.114488,54.936549L169.788431,56.392564L169.852024,59.248592L171.385331,60.552606Z"></path>
</svg>
