<?xml version="1.0" encoding="utf-8"?>
<!DOCTYPE svg PUBLIC "-//W3C//DTD SVG 1.1//EN" "http://www.w3.org/Graphics/SVG/1.1/DTD/svg11.dtd">
<!-- Generated by geo2svg 2.4.1. https://d3js.org/d3-geo-projection/ -->
<svg version="1.1" xmlns="http://www.w3.org/2000/svg" xmlns:xlink="http://www.w3.org/1999/xlink" width="800" height="800" viewBox="0 0 800 800" fill="none">
  <path fill="#fc8d59" d="M192,609.8L192.1,612.4L195.4,616.5L197.3,617L196.9,619.2L199.8,619.3L199.2,621.4L200.7,626.1L205.9,628L207.5,627.4L209,628.4L210.3,631L210.4,633.1L208,634.5L206.6,638L203.4,639.2L204.1,640.8L199.1,642.5L197.4,640.4L194.1,643.7L192.8,644.9L189,641.6L183.1,638.2L176.6,636.7L172.4,630.3L172.4,628.8L176.7,628.7L178.1,627.4L181.2,622.7L187.5,618.9L186,616.3L185.9,614.5L184.5,611.7L185.4,609L186.8,607.6L188.5,607.5L187.8,609.4Z"></path>
  <path fill="#fc8d59" d="M262.5,713.3L261.1,716.2L259.4,717.4L260,719L258.5,718.7L257.5,717.2L259,715.1ZM285.7,631.9L284.1,633.7L284.3,631.9ZM302.6,616.6L305.6,624L305.8,626.3L303.1,629.4L300.7,629.9L299.6,631.2L294.7,631.5L290.7,635.4L288.9,634.3L287.1,634.5L283.6,636.6L282.5,638.2L281.4,636.7L283.6,634.2L285.2,633.8L285.8,631.2L283.5,630.8L284.1,632.4L282.4,633L280.5,630.9L278.2,631L279.1,628.5L279.7,625.3L278.3,623.4L280.4,622.2L283,622.3L284.8,620.8L285,617.8L287.5,616.6L292.8,617.4L292.7,620.7L295.3,621.1L295.8,618.6L300,615.1Z"></path>
  <path fill="#fdbb84" d="M239.6,88.7L238.8,89.2L238.8,93.3L242.4,94.8L244.5,94.3L244.2,96.2L246.3,96.4L246.3,98.5L248.8,99.2L250.1,97.5L253.1,97L255.6,94L255,92.7L258,88.9L262.7,88.5L264.1,90.2L266.7,91.9L268.2,90.1L271,91L272.1,92.2L271.1,94.2L273.2,94.4L274.2,97.3L277.7,96.9L278,100.9L280,102.6L279.6,103.7L277.2,104.6L277.5,107.4L275.4,110.2L274.4,109.5L271.8,109.9L270.3,109.3L268.5,111.2L261.2,109.8L259.8,110.2L256.6,109.1L254.7,107.5L250.9,107.2L247.2,110.4L245.7,109L246.1,111.3L245,112.6L242.7,110.1L238.9,109.6L237.1,107.9L236.4,108.8L230.4,105.6L229.7,107.6L227.8,106.6L227.4,104L225.8,102.5L226.4,100L227.7,100.3L228.9,97.1L231.9,99.1L232.9,96.8L232.7,93.1L232.7,93.1L233.4,91.4L232.2,90.9L234.5,88L238.5,87.7Z"></path>
  <path fill="#fdd49e" d="M239.6,50L241.2,51.9L240.3,53.7L242.5,55.9L241.3,58.8L241.7,60.6L239.4,62.7L238.2,65.1L235.5,65.7L236.1,71L235.4,72.2L231.9,70.9L230.8,72.5L225.2,76.1L221.9,76.9L221.2,78.7L219.3,78.2L220,71.5L218.9,68.6L214.9,66.8L214.6,67.6L211.2,68.8L210.4,71.2L209.5,71.2L207.1,69.5L206.4,67L205.2,65.5L205.2,63.4L206.5,61.3L205.5,61.2L203.7,58.7L203.8,56.3L206.4,54.6L206.1,53.5L207.5,52L207.8,49.3L209.3,48.6L209.8,46.2L211.5,44.9L211.2,42.2L210,41.4L208.4,37.7L210.1,36.1L211.7,36L212.4,34.5L214.8,33.2L216.5,33.4L218.5,32.5L220.1,34.9L217.7,37.6L218.6,39.7L220.2,40.7L221.4,43.2L224.3,43.4L226.6,44.4L233,40.5L234.6,40.7L236.4,43.8L236.4,45.8L235.2,47.3L235.9,49.4L238.2,48.9Z"></path>
  <path fill="#fdbb84" d="M200.9,673.2L203.6,672.9L205,673.6L209.1,673.6L209.5,674.9L209,680.1L213.5,682.1L214.3,683.3L216.7,683.6L219.9,682L222,684L223.2,682.4L224.1,684.3L221.8,685.5L222.5,690L218.3,692.2L208.9,696.1L205.9,697.9L202.9,700.7L201.8,698.6L198.2,698.4L194.7,697L196.4,694L194.1,691.5L197.1,688.4L194.9,685.7L197.2,683.2L195.5,682.6L197.1,681L197.3,677.6L198.8,676.4L198.5,675L196.7,673Z"></path>
  <path fill="#ef6548" d="M245,112.6L245.6,115.8L243.8,119.1L241.9,118.8L238.5,119.8L236.8,119.4L234.8,118.3L230.8,118.6L231.7,116.3L230.9,115L227.9,114.4L226.6,112.4L227.2,111.7L226.3,107.2L227.8,106.6L229.7,107.6L230.4,105.6L236.4,108.8L237.1,107.9L238.9,109.6L242.7,110.1Z"></path>
  <path fill="#fc8d59" d="M267.7,644.6L268.4,648.6L266.6,651L263.7,652.9L261.7,654.9L263.6,659.8L261.7,662.3L259.3,663.4L254.2,658L245.6,652.6L244.5,651.3L241.6,647L239.1,645.3L236.6,642.6L233,641.9L232.4,639.4L234.3,640.3L237.6,640.1L240.5,638.7L244.5,637.9L245.3,638.4L249.5,637.5L253.2,639L256.4,640.9L262.9,642.3L266.5,644.5Z"></path>
  <path fill="#fdbb84" d="M377.8,432.7L377.5,434.9L379.8,439.2L379.7,442.7L382.5,446.9L383.4,449.5L382.6,450.4L384.4,454L383.6,454.3L382.3,452.3L382.3,454.7L383.9,454.6L384.2,456.9L385.7,459.5L386.3,462.5L385.5,462.9L386.8,465.8L388,466.3L388.2,469.1L387.6,472.6L385.9,472.2L386.4,470.8L385.6,465.9L384.8,464.6L384.5,471.1L385.9,471.9L384.2,472.8L385,476.6L383.6,475.5L381.5,476.3L381.2,478.3L379.7,478.2L379.5,480.7L376.3,482L375.1,483.5L372,484.1L369.5,482.9L367.8,483.2L366.8,481.6L365.4,477.2L365.9,475L365.7,470.8L364.2,469.7L364.1,468.1L361.7,465.1L362.6,461.1L362.3,459.1L360.6,457.4L358,452.7L358.7,451.4L357.5,448L355,438.4L356.4,439L356.9,437.7L356.2,434.3L359.5,431.8L362.4,431.8L362.5,428.3L365.6,427.9L366.2,427.1L368.5,427.5L370.9,426.9L374.7,428.5L376.2,431.4Z"></path>
  <path fill="#fc8d59" d="M275.5,590.9L274.3,593.9L274.1,596.3L275.3,596.5L276.9,598.5L276.8,600.4L274.2,604.5L272.4,604.6L270.1,602.5L269.4,604.3L267.7,605.7L268.7,606.8L267.1,607.9L270.8,610.3L269.3,611.7L267.1,611.9L265,610.6L263.6,611.3L263.4,609.4L261.8,608.8L261.7,606.6L260.1,606.1L259.4,603.4L256.8,603.3L255.4,600.9L255.9,599.8L252.4,597.9L252.1,599.1L251.2,597.5L249.3,596.7L248.8,594.3L247.5,593.6L247.7,591.9L246.3,589.2L247.9,586.3L248.4,583.8L251,581.8L254,581.6L258.1,583.6L256.7,584.8L256.5,586.9L257.7,587.7L260,586.9L260.2,588.1L263,588.5L266.8,583.7L266.6,582.7L268.8,581.9L269.3,583.4L267.4,585.9L268.2,587.2L271.5,587.5L271.7,590.5L274.5,588.5L276,589.1Z"></path>
  <path fill="#fdd49e" d="M297.1,568.7L292.1,570.6L291.4,574.9L292.9,575.8L292.7,577.5L294.5,579.3L284.8,581.5L281.8,583.9L281.3,587.5L279.2,589.2L275.5,590.9L276,589.1L274.5,588.5L271.7,590.5L271.5,587.5L268.2,587.2L267.4,585.9L269.3,583.4L268.8,581.9L266.6,582.7L266.8,583.7L263,588.5L260.2,588.1L260,586.9L257.7,587.7L256.5,586.9L256.7,584.8L258.1,583.6L254,581.6L251,581.8L251.4,579.6L254.1,578.1L252.3,573.2L250.5,568.7L253,563.8L250.3,558.6L252.5,557.9L253.4,558.7L260.7,558.6L262.1,558L264.7,559L266.3,557.3L268.6,553.5L274.6,554.4L278.2,552.8L280.7,551L285.1,545.9L285.7,544.3L288.2,543L289.3,549.8L289.4,556L293.6,557.1L298.9,564.1Z"></path>
  <path fill="#fdd49e" d="M372.1,629.5L370.7,629.1L370.3,627.3L371.6,627.2ZM367.5,589.6L363.8,590.5L362.1,592.4L361,596.7L358.1,596.4L354.6,596.7L351.1,598.3L349.8,600.1L348.9,603.3L346,604.3L344.3,603.9L343.1,604.9L342.4,607.8L341.1,607.6L340.3,609.7L339.6,608.6L336.9,607.8L333.7,609L330.6,609.5L328,613.7L326.9,618.2L325.8,620.1L321.3,619L317.3,620.3L315.3,622.4L311.9,623.3L305.8,626.3L305.6,624L302.6,616.6L305.6,614.7L305.2,608.6L302.7,605L301,605.2L298.4,603.2L300.1,600.2L300.3,598.3L302.2,593.9L303.4,593.5L303.2,590.6L304.4,588L305.7,587.1L307.4,588.9L310.6,589.9L312.6,589.3L313,588.1L316.8,587.7L322.5,588.2L327.5,589.9L329.1,593.8L333.4,591.2L334.9,590.9L340.9,585.6L338.6,583.1L339.1,581.3L341.1,580.2L343.1,581.2L346,580.2L346.8,580.8L350.4,580.3L352.1,581.1L354.1,578.8L356.9,579.1L358.5,582.6L359.6,583.2L362.5,582.9L362.3,585.8L366.5,587.4Z"></path>
  <path fill="#fdbb84" d="M195.5,682.6L197.2,683.2L194.9,685.7L197.1,688.4L194.1,691.5L196.4,694L194.7,697L198.2,698.4L201.8,698.6L202.9,700.7L198.8,709.8L195.9,712.9L191.6,714.4L188.2,719.3L183.1,721.1L175.7,722.7L169.7,720.9L169.3,719.4L174,718.4L172.7,716.3L173.3,715.2L176.9,713.8L178.3,711.1L174.7,712.6L172.6,710.9L173.5,705.4L173.9,693L174.5,689.2L175.1,676.3L177.4,678.1L179.1,674.7L180.4,676.2L183.2,675Z"></path>
  <path fill="#fc8d59" d="M215.6,647.3L220.6,650.7L223.3,654.6L222.1,655.5L218.6,655.5L218.4,655.3L215,656.7L213.9,654.9L212.6,656.4L210.4,654L208.4,657.6L200,649.8L198.2,646.9L197.2,647.1L193.8,644.1L194.1,643.7L197.4,640.4L199.1,642.5L204.1,640.8L203.4,639.2L206.6,638L211.6,642.3L212.7,644.5Z"></path>
  <path fill="#fdd49e" d="M257.8,48.1L255.5,49.4L254.2,49.2L254,50.9L252.3,51.4L249.6,50.6L248,51.5L247.2,49.8L242.3,46.4L240.3,47.8L239.6,50L238.2,48.9L235.9,49.4L235.2,47.3L236.4,45.8L236.4,43.8L234.6,40.7L233,40.5L226.6,44.4L224.3,43.4L221.4,43.2L220.2,40.7L218.6,39.7L217.7,37.6L220.1,34.9L218.5,32.5L216.5,33.4L214.8,33.2L212.4,34.5L211.7,36L210.1,36.1L208.4,37.7L206.8,37.7L206.9,34.3L205.4,31.8L201.4,28.9L195.8,26.2L197.5,25.7L197.7,23.9L200.3,22.4L200.9,20.1L206.4,19.2L208.4,14L209.9,13.6L210.6,16.1L213.4,15.5L217.5,16.3L217.9,17.5L220.3,18.5L221.3,19.8L223.6,20.3L224.2,22.5L226.8,21.8L230.8,22.5L230.9,19.9L240.1,20L242.5,22.5L243.3,25.1L247.2,26.6L248.6,25.3L251.4,25.4L252.2,24.3L254.5,24.2L255.2,22.2L257.8,23.5L259,22.9L262,26.1L262.7,24.9L264.8,25.2L264.9,26.7L267.4,28.1L269.8,28.5L270,30.6L267.3,32.3L267.9,34.2L266.7,34.6L264.5,40.6L261.7,40.5L259.8,39.3L258.4,44.2Z"></path>
  <path fill="#fc8d59" d="M544.8,360.8L542.2,362.6L539.4,363.2L538.3,361.9L539.9,361L545.3,359.8ZM541.2,361.3L538.8,361.9L539.7,363L542.5,362.3L543.4,360.9ZM506.8,361.8L505.2,361.3L506.4,359.8L508.7,360.6ZM335.5,353.4L333.6,354.4L332.1,357.6L334.9,359.9L336.9,359.6L336.6,358L338.1,356L342.4,357.9L338.3,358.9L338,360.7L340,365.2L338,364.8L336.3,366.4L335,365.3L332.9,367L331.3,366.2L330.1,367.2L328.1,366.8L325.4,367.5L324,366.3L325.4,363.1L324.3,360.4L321.5,361.9L319.6,360.6L317.5,360.8L319.3,358L320.3,354L322,353.1L324.1,354.4L325.6,353.2L328.9,354.9L332.3,354.6ZM507.2,349.7L507.7,351.9L505.8,353.2L506,350.5L500.5,350.5L497.3,353.6L500.4,352.3L501.3,352.8L499.2,354.2L497,354.8L496.2,353.2L499.9,349.9L506.2,349.1ZM520.9,347L518.1,347.1L514.9,348.1L514.7,346.9L518.7,345.9ZM498.6,342.3L497.1,340.6L498,340ZM505,342L505,338L506.6,338.8ZM504.7,337.4L503.3,336.8L504.2,335.6ZM488,329.1L486.7,328.6L488.4,327.4ZM530.7,315.9L527.2,316.5L526.4,315.7L528.8,314.8ZM496.2,310L492.9,311.7L490.7,311.2L491,310.4L493.8,309.4Z"></path>
  <path fill="#fdd49e" d="M358.7,509.3L358.4,509.7L362.2,512.1L364.1,515.5L366.5,516L367.7,518L372.3,518L373.3,519.6L373.5,523.3L372.9,524.5L371.2,523.9L369.2,524.9L369,527.2L367.4,528.7L369,530.3L367.2,533.6L367.7,535.5L363.4,533L361.3,534.4L360.4,534L358.2,537L359.1,539.3L358.7,542.1L357.7,543.1L354.7,544L352.2,543.1L350.5,544L349.7,542.7L348.1,544.1L344.6,545.7L343.3,545.1L340.6,547.3L338.6,547.7L337.6,549.5L337,548.6L335,549L334.1,547.9L331.6,548.5L330.2,545.7L326.9,542.7L325.2,543.1L322.9,540.6L322,538.2L322.5,536.8L325.3,535.8L326.2,534.3L323.4,531.9L320.8,531.3L322.9,529.3L321.2,523.1L321.7,521.5L319.5,520.9L319,518.2L316.5,519.8L314.9,519.8L308.4,518.7L305.2,518.9L302.4,515.2L301.6,511.2L302.6,510.3L301.6,508.1L307.4,494.4L311.8,491.1L315.1,491.4L318.4,489.8L326.6,490.7L328.7,489.1L333.1,489.4L334.7,490.6L338.8,491.1L342.7,492.7L344,496L345.8,496.8L346.5,499.6L348.2,501.2L348.1,503.1L350.8,505.7L350.7,507.4Z"></path>
  <path fill="#fdd49e" d="M331.6,548.5L331.6,550.4L328,550.5L325.6,551.6L324.4,554.2L326.7,554.9L326.6,556.1L331.4,562.4L329.4,565.4L325.2,567.4L323.7,565.9L322.3,567.2L320.9,566L320.6,563.5L316,564.2L313.7,563.5L312.2,561.2L310.6,561.6L310.7,562.9L308.5,563.9L308,565.1L304.8,567.5L301.5,567.3L300.7,568.8L298.3,569.5L297.1,568.7L298.9,564.1L293.6,557.1L289.4,556L289.3,549.8L288.2,543L291.3,541.7L294.9,541.5L298.4,545.5L299.6,543.5L304.4,540.5L304.6,537.3L306.1,533.6L305.5,532L306.6,530.5L305.6,526.2L306,524.5L305.2,518.9L308.4,518.7L314.9,519.8L316.5,519.8L319,518.2L319.5,520.9L321.7,521.5L321.2,523.1L322.9,529.3L320.8,531.3L323.4,531.9L326.2,534.3L325.3,535.8L322.5,536.8L322,538.2L322.9,540.6L325.2,543.1L326.9,542.7L330.2,545.7Z"></path>
  <path fill="#fdd49e" d="M111.3,70.6L110.4,73.4L112.5,76L114.2,80.9L116.1,84.8L113.5,86.6L114.2,87.5L112.4,90.7L112.2,92.2L109.5,93.3L108.7,97.3L106.3,97.1L103.6,97.8L106,100.8L105.3,102.3L108,103.2L108.2,110.4L106.5,111.2L107.8,115.2L105.7,115.6L102.5,113.9L100.8,115.4L101.8,121.1L101.3,123.2L97.9,123.8L95.6,122.8L93.1,123.7L89.2,115.9L86.3,115.3L84.6,110.9L83,110.2L83.3,107.3L81.1,106L79,106.4L78.5,105.4L80.6,103.8L82.6,103.6L82.6,99.7L84.2,96.7L81.5,97.6L83.5,93.7L87.2,89.7L86.6,86.3L87,82.9L85.3,82.6L81.7,83.8L80.7,82.9L80.5,77.2L79,77.2L79.2,82.3L75.5,85.9L72.1,86.2L70.8,82.3L71.4,79.3L70.6,76.2L69.2,75.5L68.8,73L64.3,70.7L63.2,69.5L64.7,68L60.7,64.6L60.5,63.4L58.2,62.8L54.6,58.8L53.1,59L52.9,57.5L51.4,57.4L51,55.2L48.3,54.1L49.1,52.5L47.7,51.5L46.7,49.3L47.4,47.8L51.2,47.9L52.4,48.6L51.7,46.5L55.2,42L56.5,44.8L58.2,45.9L58.4,48.9L61,51.1L65.8,57.1L67.2,56.3L69.3,57.5L69.4,59.4L72.1,60.8L73.1,58.9L71.4,56.6L74.7,57.4L75.8,58.9L75.3,62.5L76.9,64.8L80.7,66L84.1,64.6L86.9,67.8L87.6,66.6L89.4,66.8L91.8,65.7L92.4,64.1L94.6,65.8L95.7,65.2L100.9,67.2L101.1,63.9L103.5,61.5L105.8,61.4L108.3,66.4L109.9,67.7L109.2,68.6Z"></path>
  <path fill="#fc8d59" d="M304.4,588L303.2,590.6L303.4,593.5L302.2,593.9L300.3,598.3L300.1,600.2L298.4,603.2L301,605.2L302.7,605L305.2,608.6L305.6,614.7L302.6,616.6L300,615.1L295.8,618.6L295.3,621.1L292.7,620.7L292.8,617.4L287.5,616.6L285,617.8L284.8,620.8L283,622.3L280.4,622.2L278.3,623.4L279.7,625.3L279.1,628.5L278,628.3L277.7,625.9L274.3,624.5L272.5,622.5L270.1,623.5L266.8,620.3L267.3,618.1L270,616.2L272.5,616.8L272.7,614.4L271.6,613.1L270.8,610.3L267.1,607.9L268.7,606.8L267.7,605.7L269.4,604.3L270.1,602.5L272.4,604.6L274.2,604.5L276.8,600.4L276.9,598.5L275.3,596.5L274.1,596.3L274.3,593.9L275.5,590.9L279.2,589.2L281.3,587.5L281.8,583.9L284.8,581.5L294.5,579.3L295.5,577.6L296.3,580.8L298,580.2L300.9,582.5L299,584.4L301.1,584.6L301.8,586.4L304,588.5Z"></path>
  <path fill="#fdbb84" d="M206.8,607.9L207.6,609.3L210.8,610.8L212.2,613.7L211.4,613.8L220.3,622L222.8,623L226.5,627.8L228,627.9L228,629.9L224,634.1L223.3,636.1L221.9,635.9L222,638.2L223,639.4L225.7,640.5L224.9,641L226.9,643.6L224.8,644.6L224.6,646.3L221.3,646.3L217.8,643.9L215.6,647.3L212.7,644.5L211.6,642.3L206.6,638L208,634.5L210.4,633.1L210.3,631L209,628.4L207.5,627.4L205.9,628L200.7,626.1L199.2,621.4L199.8,619.3L196.9,619.2L197.3,617L195.4,616.5L192.1,612.4L192,609.8L195.6,610.5L199.1,612.5L203.3,606.9Z"></path>
  <path fill="#fdd49e" d="M352.3,432.2L356.2,434.3L356.9,437.7L356.4,439L355,438.4L357.5,448L358.7,451.4L358,452.7L360.6,457.4L362.3,459.1L362.6,461.1L361.7,465.1L364.1,468.1L364.2,469.7L365.7,470.8L365.9,475L365.4,477.2L366.8,481.6L363.8,481.2L362,481.7L359.8,485.5L361.8,486.9L364.1,486.2L364.9,491.9L367.8,495.7L366.3,501.3L362.6,502.6L362,504.6L362.3,507.5L359.3,508.3L358.7,509.3L350.7,507.4L350.8,505.7L348.1,503.1L348.2,501.2L346.5,499.6L345.8,496.8L344,496L342.7,492.7L338.8,491.1L334.7,490.6L333.1,489.4L328.7,489.1L326.6,490.7L318.4,489.8L315.1,491.4L311.8,491.1L307.4,494.4L308.6,491.7L307.9,483.6L305.8,479L305.6,476.9L303.9,473.2L300,470.7L301,467.9L300.1,467L300.4,464.4L301.1,462.8L303.5,461.5L303.4,460L307,459.4L307.8,457.6L309.5,457.3L309.9,452.8L311.3,450L314.6,450.9L318.5,449.3L319,447.4L321.3,447.2L324.3,449.6L326.9,448.9L328.1,447.3L329,447.8L331.7,443.1L333.5,443.8L337.8,441.5L340.3,441.8L340.1,440.9L344.4,435.1L343.3,432.6L345.4,431.7L347,433.7L349.5,434.3L351.4,433.8Z"></path>
  <path fill="#fdd49e" d="M209.9,13.6L208.4,14L206.4,19.2L200.9,20.1L200.3,22.4L197.7,23.9L197.5,25.7L195.8,26.2L201.4,28.9L205.4,31.8L206.9,34.3L206.8,37.7L204.9,39L198.7,37.5L197.8,38.8L196.6,37.5L190.1,34.7L189.3,35.9L190.6,38.2L189.7,38.2L188.5,40.7L189.1,42.8L188.2,44.8L188.5,46.6L187.2,47.4L187.8,48.7L186.5,50.2L187.1,51.3L185,51.8L185.9,52.8L185.2,54.9L183.6,55.9L182.1,53.1L180.6,53.2L178.2,51.8L178.1,53.5L179.3,54.7L177.9,55.7L179.1,57.2L178.1,60L175.8,60L171.4,60.6L169.9,59.2L169.8,56.4L164.1,54.9L163.3,56.7L161.7,57.2L161.2,55.5L162.9,54.2L162.8,51.6L158.7,48.3L156.7,46.3L157.9,45.2L155.1,43L155.6,40.7L157.5,40.7L157.2,38.8L155,37.5L154.3,35.4L152.7,35.8L151.6,33.9L152.2,34.8L154.4,34.3L155.5,32.6L157.6,31.7L160,29.6L161.4,27.5L163.5,26.8L164.6,28.6L165.1,27.1L167.4,28.6L170.4,27.9L172.2,24.4L176.5,22.3L175.4,20.4L173.6,13.4L177.1,13.1L177.4,11.3L179,10.6L180.6,12.1L181,9.6L182.9,9.4L187.2,6.2L188.3,7.3L191.2,5.2L193.9,6.5L195.3,2.5L196.5,2.5L198.4,0L200.7,3.7L202.9,5.5L203.5,4.5L206.5,7.9L206.9,9.5L209.4,10.2L210.3,11.6Z"></path>
  <path fill="#fc8d59" d="M236.5,137.5L237.1,139.7L239,141.1L239.6,144.1L237.8,144.8L237,143.3L235.5,143.9L235.6,145.4L232.8,144.8L231.7,147.3L230.3,148.1L229.6,146.3L227.7,148.3L227.6,149.8L226,149.4L224.1,147.1L223.7,144.4L221,142.7L219.8,140.1L220.9,139.9L221.8,136.6L222.8,135.9L225.8,135.8L228,134.3L229.6,135.1L230.9,133.2L232.3,134.2L232.4,136.4L233.4,137.9Z"></path>
  <path fill="#d7301f" d="M225.8,102.5L227.4,104L227.8,106.6L226.3,107.2L227.2,111.7L226.6,112.4L227.9,114.4L230.9,115L231.7,116.3L230.8,118.6L228.9,119.2L229.1,120.3L226.5,120L226.6,122.7L225.8,123.6L227.6,125.8L226.5,126.8L227.2,129L229.2,129.8L229.6,133.4L230.9,133.2L229.6,135.1L228,134.3L225.8,135.8L222.8,135.9L221.8,136.6L220.9,139.9L219.8,140.1L218.5,138.4L216.8,138.4L215,134.4L215.6,133.6L213.9,131.4L213.6,127.2L211.7,126.5L209.9,128L210.9,125.6L209.7,124.5L210.7,122.1L207,122.1L204.3,120.8L201.5,117.4L198.1,118L197,116.2L198.3,113L196.7,110.7L197.3,109.4L199.3,108.3L200.3,104.2L202.3,104L204,105.5L205.4,109.8L206.6,110.7L209.8,111.1L212.6,109.9L212.4,108.5L214.8,106.8L217.6,107.5L217.5,105.6L219.4,103.6L220.5,100.8L221.2,99.6L223.8,100L224.5,102.4Z"></path>
  <path fill="#fdbb84" d="M219.2,228.8L220.1,229L221.6,234.7L223,237.8L227.3,244L227.9,243.6L230.3,247.2L235.1,252.3L238.3,252.9L242.6,255.5L247.7,260.4L250.9,261.6L252.1,264.4L254.4,267.8L255.1,268L252.2,268.5L251.6,267.4L247,266.6L244.2,269.3L244.1,270.1L241.5,269.4L239,270.2L232.9,268.7L234.4,266.5L230.1,262.9L228.5,263.2L227.6,261.7L225.7,261.7L224.5,262.8L222.1,263.1L222.6,264.4L220.2,265.2L218,264.3L216.6,266.4L213.7,266.5L210.8,265.5L210.1,261.8L208.8,261.9L207.4,260.1L206.5,256.1L203.1,257.1L202.6,258.5L198.3,256.2L198.8,253.6L195.3,253.3L194.7,251.6L192.1,250.4L191.6,246.9L190.3,247L188,244.2L188.6,239.6L189.4,237.1L190.7,236L192,236.5L194,237.2L196.4,235.4L200.4,237.6L203.8,237.2L207.1,236.1L208.9,238.9L212.4,237.7L213.4,238.3L215.9,237.1L215.9,235.5L217.6,233.1L219.6,232.3L218.5,229.8Z"></path>
  <path fill="#ef6548" d="M254.7,107.5L253.9,112.2L251.8,112.8L252.5,115.4L255.4,116.3L258.2,115.8L259.9,117.6L257.2,118.8L259.1,121.3L255.9,122.8L257.1,124.7L253.8,125.1L254.5,130.4L252.8,132.2L250.2,131.8L247.5,133.4L247,132.8L243.6,134.2L241.5,133L241,130.9L238.1,129.4L237,128.1L238.3,121.1L236.8,119.4L238.5,119.8L241.9,118.8L243.8,119.1L245.6,115.8L245,112.6L246.1,111.3L245.7,109L247.2,110.4L250.9,107.2Z"></path>
  <path fill="#ef6548" d="M271,127.5L272.1,126.9L273.7,128.5L271.2,128.8ZM276.3,125.1L277.5,126.2L280.2,125.4L280.8,127.6L282.1,127.3L283.3,129.6L280.7,129.7L281.2,132.5L278.4,132L275.3,127.7ZM267.1,127.9L266.9,129.9L269,132.5L268.7,134L267.4,132.8L264.9,134L262.6,136.6L260.6,137L259.5,136.4L255.5,138.2L253.2,138.3L251.7,135.3L249.9,133.9L250.2,131.8L252.8,132.2L254.5,130.4L253.8,125.1L257.1,124.7L255.9,122.8L259.1,121.3L257.2,118.8L259.9,117.6L261.8,117.6L267.4,119.7L267.5,122.6L266.7,124.5L265.3,125.2L266.7,125.9Z"></path>
  <path fill="#fdbb84" d="M218.4,655.3L218.6,655.5L222.1,655.5L223.3,654.6L225.8,656.7L224.8,657.8L223.2,665.8L216.5,669.9L215,671.4L210.5,672.2L209.1,673.6L205,673.6L203.6,672.9L200.9,673.2L202.4,670.9L199.2,669.3L198.7,668.2L202.8,665.5L203.6,662.6L207.7,660.3L208.4,657.6L210.4,654L212.6,656.4L213.9,654.9L215,656.7Z"></path>
  <path fill="#fdd49e" d="M198.1,118L201.5,117.4L204.3,120.8L207,122.1L210.7,122.1L209.7,124.5L210.9,125.6L209.9,128L211.7,126.5L213.6,127.2L213.9,131.4L215.6,133.6L215,134.4L216.8,138.4L218.5,138.4L219.8,140.1L221,142.7L223.7,144.4L224.1,147.1L222.4,147.3L220.8,145.5L218.9,146.3L219.2,149.3L215.7,147.7L217.8,151.2L215.8,152.8L210.8,149.7L208.9,150L207.1,150.1L203.3,148.8L202.3,149.5L199.6,148.7L195.4,146.5L195.7,145.5L193.9,143L191.1,142.5L190.3,141.2L186.9,139.5L184.1,140.4L181.2,137.9L181.1,137L178.1,134.9L175.7,135.8L175.6,130.7L177.4,130.1L182.9,132.3L182.6,130.8L184.2,128.5L183,127.8L183.3,126.3L181.9,123.2L180.2,122L176.7,117.2L176,114.8L178.9,113.1L178.8,115.3L181.2,115.6L186.4,118.9L187.4,120.5L189.4,121.6L192.9,121L192.5,122.5L194.9,121.3L197.9,122.3L199.5,121.5Z"></path>
  <path fill="#ef6548" d="M236.8,119.4L238.3,121.1L237,128.1L238.1,129.4L241,130.9L241.5,133L243.6,134.2L241.1,135.6L241.5,136.3L237.6,135.4L236,136.2L236.5,137.5L233.4,137.9L232.4,136.4L232.3,134.2L230.9,133.2L229.6,133.4L229.2,129.8L227.2,129L226.5,126.8L227.6,125.8L225.8,123.6L226.6,122.7L226.5,120L229.1,120.3L228.9,119.2L230.8,118.6L234.8,118.3Z"></path>
  <path fill="#fdbb84" d="M495.3,773.2L495.6,770.2L496.7,770.8ZM503,766.6L500.8,768.2L500.9,767.1ZM620,761.6L616.4,763.5L613.3,766.7L609.9,767.6L609.8,766.2L612.3,766.8L616.3,763.3L618.9,761.5ZM443.4,759.3L445,757.1L445.5,758.4ZM635,751.6L632.7,753.1L630.6,753L633.5,750.9ZM608.8,749L611,751.9L607.6,749.6ZM452,746.9L451.2,749.6L450,748.5L450.1,746.5ZM647.5,741.7L649.3,741.8L651,743.3L650.8,745L649.1,743.5L643.5,743.5L642.4,744.9L636.9,745.2L639.3,744L646.5,741.5ZM581.7,739.2L580.3,741.7L576.4,745.7L578.9,741L581.5,738.3ZM578.1,743.4L580.5,741.2L581,739.4L579.2,741ZM669.9,731.4L670.5,732.2L673.8,732.7L673.4,733.3L669.8,733.1L668.5,731.6ZM621.8,714.4L622.5,717L621,717.8L620.5,713.9ZM621.1,717.3L622.1,716.8L620.8,714.9ZM609.9,709.8L614.2,710.4L615.6,713.1L612.8,712.9L607.8,710.2ZM613,712.6L615.2,712.8L612.7,710.4L609.3,710L609.5,711ZM544.8,709.4L549.2,710.3L544.1,711.1L543.4,709.3ZM722.8,706L722.1,707.7L720.7,708L721.4,706.1ZM598.5,703.4L595.3,704.7L595.8,703.8ZM681.7,681.9L682.4,684.5L680.8,684.9L680.4,683.6ZM567.6,669L562.4,672.8L559.2,674.3L561.9,670.2L563.7,668.6L561.2,672.2L563.2,672L567.2,668.6ZM733.8,666.2L735.7,666.1L737.2,667.7L732.7,666.7ZM702.9,663.5L702.2,666.6L700.8,669.8L701.1,666.7L700.7,664.7L701.9,663.1ZM701.2,667.9L702.6,664.2L701,664.8ZM686.5,657.1L688.1,658.4L686.5,659.8L684.7,659.6L684.1,657.7ZM684.8,659.3L686.6,659.6L687.2,657.6L684.4,657.7ZM644.4,653.9L643.8,656.2L643.3,654.4ZM605.3,653.5L605.1,647.3L606.1,648ZM675.3,644.3L674.2,645.5L674,643.5ZM732,640L730.5,638.8L731.7,637.3L733,639ZM646.1,637.8L644.6,639.3L644,638L646.9,635.7ZM638.9,638.3L638.8,636.3L640.2,634.8ZM698.6,628.1L698.1,630.7L696.7,631.7L694.7,630.4L696.2,628.1ZM751.2,627.3L752.7,626.9L752.7,628.3L750.9,629.3L749.8,627.2ZM716.4,624.7L715.7,624.7L715.8,619.2L717.9,623ZM739.6,616.7L737.6,615.7L737.9,614.1L740.2,616.2ZM701.9,615.8L703.2,620.3L701.6,618.8L700.9,616L699.3,616.1L700.3,622.6L701.2,622.7L699.7,625.2L698.7,618.3L698.8,616L700.2,613.9ZM656.7,612.1L655.1,612.2L657.3,610.4ZM617.2,609.7L617.1,609.9L615.2,610L616.7,608.6ZM723.8,586.8L724.9,583.1L725.7,583.5ZM644.5,582L642.9,582.4L642.4,586.5L642.1,583.3L642.8,581.6ZM717.2,583.9L716.9,583.1L718.9,581.2ZM726.4,581.9L725.7,581.6L727.5,578.5ZM721.1,580.7L720.6,580.2L724.2,577L724.7,577.6ZM727.5,574.7L726.8,573.9L729,572.6ZM731.1,573.7L729.8,571.4L731.3,569.1L731.6,572.2ZM387.3,546.4L389.1,546.4L389.9,548L387.5,548.7L385.5,547.2ZM390.5,527.1L392.3,527.3L393.6,530.5L392.9,530.8L388.7,527.9ZM383.2,566.5L380.5,566.8L378.3,566.3L375.8,561.9L373.3,561.5L369.8,559.7L368.8,559.9L366.6,558.2L367,556.7L364.3,555.2L364.8,554.5L363.6,551.4L363.9,549.8L361,549.6L359.6,545.8L359.8,542.7L358.7,542.1L359.1,539.3L358.2,537L360.4,534L361.3,534.4L363.4,533L367.7,535.5L367.2,533.6L369,530.3L367.4,528.7L369,527.2L369.2,524.9L371.2,523.9L372.9,524.5L373.5,523.3L375.9,521.4L378,521.5L379.6,518.8L380.7,519.7L381.7,517.6L384.8,518.2L386.1,516.9L387.5,517.2L391.4,515.5L392.5,516.7L391,517.8L391.4,520L394.3,525.1L395.6,525.1L393.7,529.2L392.5,527.1L393.3,525L390.8,523.9L392,523.3L390.9,518.8L389.5,519L386.1,523.3L384.8,523.8L382.7,527.5L383.8,530.4L385,528.7L385.4,532.9L387.9,534.4L387.9,536.9L390.2,538L388.4,539L388.2,540.3L386.5,540L385.2,537.5L382.4,535.4L380.7,537.6L383.5,538.6L383.6,541.2L385.5,542.6L383.7,543.4L383.3,546L384.2,547.2L383.4,549.5L384.5,550L383.3,551.8L383.6,554.5L385.7,558.3L387.5,559.6L386.2,561.3L387.3,563.3L385.9,564.4L383.6,563.1L384.2,558.6L383.5,555.3L382.3,553.2L382.2,555.3L383.8,558.1L381.7,561.9L380.6,561.7L379.2,564.6L380.8,566.2L382.8,563.4Z"></path>
  <path fill="#fdbb84" d="M166.4,663.4L164.5,663.4L165.5,662.3ZM136.8,633.9L138.8,635.7L139.2,641.9L136.8,647.1L136.2,649.6L137.3,650.4L135.7,653.2L134.9,651.4L133.1,642.8L131.3,639.9L128.4,638.9L127.4,636.1L127.9,635.6L131.5,636.4L134,632.7L135.5,632.2ZM172.4,628.8L172.4,630.3L176.6,636.7L183.1,638.2L189,641.6L192.8,644.9L194.1,643.7L193.8,644.1L197.2,647.1L198.2,646.9L200,649.8L208.4,657.6L207.7,660.3L203.6,662.6L202.8,665.5L198.7,668.2L199.2,669.3L202.4,670.9L200.9,673.2L196.7,673L198.5,675L198.8,676.4L197.3,677.6L197.1,681L195.5,682.6L183.2,675L180.4,676.2L179.1,674.7L177.4,678.1L175.1,676.3L176.2,667.2L178.2,661L180.9,660.8L183.8,657.7L186.4,656.1L187.9,657.1L186.5,653.1L183.5,649.9L181.5,649L178.5,649.6L177.1,649.1L174.6,645.3L171.7,643.1L169.7,643L167.6,644.7L165.8,647.2L164.4,645.9L163.3,641.9L161.3,639.7L158.1,635.3L156.6,636.2L156.2,633.4L158.9,634L161.5,631.7L161.8,630L164.2,627.8L168.4,627.8Z"></path>
  <path fill="#fdd49e" d="M337.6,410.7L339,413L341.2,414.9L341.6,416.5L343.7,418.1L345.2,420.7L348.2,422.4L349.8,421.9L351.4,424.2L349.9,426.7L350.7,427.5L349.2,430.4L351.1,430.4L352.3,432.2L351.4,433.8L349.5,434.3L347,433.7L345.4,431.7L343.3,432.6L344.4,435.1L340.1,440.9L340.3,441.8L337.8,441.5L333.5,443.8L331.7,443.1L329,447.8L328.1,447.3L326.9,448.9L324.3,449.6L321.3,447.2L319,447.4L318.5,449.3L314.6,450.9L311.3,450L309.9,452.8L309.5,457.3L307.8,457.6L307,459.4L303.4,460L303.5,461.5L301.1,462.8L300.4,464.4L299.8,460.9L296.9,461.2L295.5,459.6L296.7,456.9L294.5,455.1L297.8,449.4L297.8,446.6L297.2,444.9L298.6,442.7L298.7,440.5L301.8,441L302.8,436L303.8,433.8L303.2,432.3L305.2,427.3L305.1,425.8L302.7,422.4L306.6,418.7L306.3,417.4L301.4,414.4L301.1,411.2L304.5,409.8L306.1,410.8L308.1,409.6L307.1,407.9L308.3,405L306.3,402.6L308.1,401.8L307.8,398.2L308.7,396.7L307.6,395.9L307.1,393.5L308.2,392.1L310,393.5L310.1,395L312.3,397.5L313.2,397.2L313.6,401.1L321.1,402.8L322.8,402L323.9,403.7L326.2,404.8L325,408.9L323.9,409.8L325.6,412.2L328.3,412.5L330.5,414.6L333.4,414L333.8,413.1L333.3,409.8L334.9,409.5Z"></path>
  <path fill="#fee8c8" d="M112.7,39.6L114.9,40.5L116,43.1L114.1,45.8L117.3,49.5L122.4,48.5L124,49.7L124.8,52L124.1,53.5L126.6,55.4L127.8,58L131.3,62L132.2,62.2L133.2,69.2L134.6,70.8L132.6,73.2L130.1,73.1L130,75.8L133,79.1L133.7,80.6L133,82L131.3,82.3L131.6,84L129.6,84.6L127.6,83.7L127.3,81.9L125.9,82L123.8,78.6L120.8,77.8L122.1,75.1L120.2,73.1L118.7,69.5L116.3,68.5L112.6,68L111.3,70.6L109.2,68.6L109.9,67.7L108.3,66.4L105.8,61.4L103.5,61.5L101.1,63.9L100.9,67.2L95.7,65.2L94.6,65.8L92.4,64.1L91.8,65.7L89.4,66.8L87.6,66.6L86.9,67.8L84.1,64.6L80.7,66L76.9,64.8L75.3,62.5L75.8,58.9L74.7,57.4L71.4,56.6L73.1,58.9L72.1,60.8L69.4,59.4L69.3,57.5L67.2,56.3L65.8,57.1L61,51.1L58.4,48.9L58.2,45.9L56.5,44.8L55.2,42L56.8,41.1L59.1,37.8L58.1,35.4L60.6,34.3L61.4,31.7L64.1,30.6L66.9,34.2L68.8,32.8L71.1,34.9L72.6,34.2L77.4,38L79.2,38.1L81.6,39.8L81.7,41.5L84.2,45.2L86.9,45.3L89,47.2L91.4,46.8L91.4,44L93.4,43.3L96.3,41.4L95.1,39.7L96.4,37.2L98.4,37.1L101.1,35.2L101.2,32.6L103.1,28.7L107.4,30.5L108.6,31.8L108.2,34.4L110.9,38.4Z"></path>
  <path fill="#fdd49e" d="M361,549.6L358.3,551.5L360.1,554.9L357.9,559L357.3,564.9L355.8,566.6L358.2,567.7L358.2,569.6L359.7,571.8L358.5,573.4L353.1,574.7L352.6,576.6L354.1,578.8L352.1,581.1L350.4,580.3L346.8,580.8L346,580.2L343.1,581.2L341.1,580.2L339.1,581.3L338.6,583.1L340.9,585.6L334.9,590.9L333.4,591.2L329.1,593.8L327.5,589.9L322.5,588.2L316.8,587.7L313,588.1L312.6,589.3L310.6,589.9L307.4,588.9L305.7,587.1L304.4,588L304,588.5L301.8,586.4L301.1,584.6L299,584.4L300.9,582.5L298,580.2L296.3,580.8L295.5,577.6L294.5,579.3L292.7,577.5L292.9,575.8L291.4,574.9L292.1,570.6L297.1,568.7L298.3,569.5L300.7,568.8L301.5,567.3L304.8,567.5L308,565.1L308.5,563.9L310.7,562.9L310.6,561.6L312.2,561.2L313.7,563.5L316,564.2L320.6,563.5L320.9,566L322.3,567.2L323.7,565.9L325.2,567.4L329.4,565.4L331.4,562.4L326.6,556.1L326.7,554.9L324.4,554.2L325.6,551.6L328,550.5L331.6,550.4L331.6,548.5L334.1,547.9L335,549L337,548.6L337.6,549.5L338.6,547.7L340.6,547.3L343.3,545.1L344.6,545.7L348.1,544.1L349.7,542.7L350.5,544L352.2,543.1L354.7,544L357.7,543.1L358.7,542.1L359.8,542.7L359.6,545.8Z"></path>
  <path fill="#fdd49e" d="M257.8,48.1L258.8,50.2L257.5,51.9L262.2,52.6L264.2,58L262.8,60L264.4,61.4L263.7,62.3L264.6,64.1L263.5,68.8L264.2,71.1L265.9,68.8L268.1,68.9L269.2,70.4L271.8,69.9L274.7,70.5L275.1,72.5L277.4,72.8L278,71.6L281.4,72.6L281.6,74.4L279.3,75.9L278.7,77.5L282.6,78.6L285.1,80.9L290.3,83.7L292.9,81.9L295.7,85.8L295.8,89L292.5,89.3L291.9,90.6L288.2,91.8L289.5,92.8L289.8,95.9L291.1,98.9L290.5,100.5L288.9,99.5L286.6,100.6L283.2,100.1L280,102.6L278,100.9L277.7,96.9L274.2,97.3L273.2,94.4L271.1,94.2L272.1,92.2L271,91L268.2,90.1L266.7,91.9L264.1,90.2L262.7,88.5L258,88.9L255,92.7L255.6,94L253.1,97L250.1,97.5L248.8,99.2L246.3,98.5L246.3,96.4L244.2,96.2L244.5,94.3L242.4,94.8L238.8,93.3L238.8,89.2L239.6,88.7L239.9,86.7L241.5,85L242.1,83L236.1,80L235.3,78.1L236.9,72.9L235.4,72.2L236.1,71L235.5,65.7L238.2,65.1L239.4,62.7L241.7,60.6L241.3,58.8L242.5,55.9L240.3,53.7L241.2,51.9L239.6,50L240.3,47.8L242.3,46.4L247.2,49.8L248,51.5L249.6,50.6L252.3,51.4L254,50.9L254.2,49.2L255.5,49.4Z"></path>
  <path fill="#fdd49e" d="M151.6,33.9L152.7,35.8L154.3,35.4L155,37.5L157.2,38.8L157.5,40.7L155.6,40.7L155.1,43L157.9,45.2L156.7,46.3L158.7,48.3L162.8,51.6L162.9,54.2L161.2,55.5L161.7,57.2L163.3,56.7L165.2,60.6L163.1,60.4L162.2,64.8L155.1,59.3L153.6,60.4L154.7,63.4L153.4,65.8L155.1,67.9L155.7,72.4L152.3,75.3L150.8,73.2L145.5,71.7L146.3,73.8L144.5,74.7L139.6,73.4L135.8,73.2L134.6,70.8L133.2,69.2L132.2,62.2L131.3,62L127.8,58L126.6,55.4L124.1,53.5L124.8,52L124,49.7L122.4,48.5L117.3,49.5L114.1,45.8L116,43.1L114.9,40.5L112.7,39.6L114.9,37.3L114.4,34.3L118.1,29.6L119,30L124.3,35L129.3,41.1L130.2,41L133.6,44L135.9,43.2L135.6,40.6L136.5,38.5L137.5,32.9L140.2,29.6L145.5,27.7L148.3,27.8L147.6,31.1L148.6,32.4Z"></path>
  <path fill="#fdbb84" d="M238.4,606.5L238.8,607.4L242.2,606.3L243.8,606.5L244.9,604.4L247.8,606L248.5,607.1L250.4,606.9L252.4,608.4L256.3,610.3L254.6,615.9L253,617.3L255.6,618.9L257.3,622.5L259.7,622L261.3,623.7L263.4,622.2L265.6,623.4L266.5,628.5L265.8,629.8L263.3,632.6L261.2,630.7L260.6,632L257.4,633.9L256,632.9L253.7,634.6L250.5,633L252.4,632L250,630L248.4,630.2L248.4,628.8L246,626.3L244.4,625.5L235.6,626L235.6,628.6L228,627.9L226.5,627.8L222.8,623L220.3,622L211.4,613.8L212.2,613.7L210.8,610.8L207.6,609.3L206.8,607.9L208.7,607.9L214.9,606.2L217.2,604.6L220.5,604.2L222.1,607.6L224.3,610.4L223.7,612.3L227.5,613.3L228,609.6L233.7,614.3L238.5,614.5L239.8,615.7L239.7,613.3L237.2,609.7L237.6,606.7Z"></path>
  <path fill="#ef6548" d="M239.6,144.1L241.4,144.7L241.3,147.7L243.8,148L244.2,149.2L242.8,150.9L244,151.7L247,149.3L251.1,152.9L253.4,153.5L255.9,152.3L257.7,154.2L258.3,154.9L253.7,157.2L250,157.9L247.8,159.3L241.9,165.9L238.4,170.2L237.3,169.5L235.5,170.6L236.2,165.6L237.1,165L238.8,161.5L238,156.9L235.9,157.2L235.2,155.3L233.3,157.2L232.8,155.3L229.9,154.9L230,153.5L227.8,151.8L227.6,149.8L227.7,148.3L229.6,146.3L230.3,148.1L231.7,147.3L232.8,144.8L235.6,145.4L235.5,143.9L237,143.3L237.8,144.8Z"></path>
  <path fill="#fdd49e" d="M221.4,202.7L219.7,205.5L218.1,206.8L218.2,211.9L216,212.9L215,212.3L212.8,215.4L212.5,218L213.3,222L217.2,224.4L217.2,225.8L219.2,228.8L218.5,229.8L219.6,232.3L217.6,233.1L215.9,235.5L215.9,237.1L213.4,238.3L212.4,237.7L208.9,238.9L207.1,236.1L203.8,237.2L200.4,237.6L196.4,235.4L194,237.2L192,236.5L192.5,234.6L189.4,232.3L189.4,231L185.4,231.3L183.9,229.4L180.2,229.8L180,228.1L178.7,227.5L173.3,227.6L169.7,226L169.3,224.8L167.6,225L165.3,222.5L162.9,221.8L161.2,218.2L159,216.9L156.7,217.7L154.3,214.2L149.9,212.4L148.7,211.1L146.4,211.5L146.1,209.7L143.9,207.3L140.3,206.6L138.7,204.9L135.8,205.5L133.5,204.7L131.3,202.2L129.4,201.4L133,199.4L134.1,197.4L138.6,196.6L140.2,191.3L140.5,189.1L138.2,186.7L138.7,183.5L141.8,184.5L143.6,183.2L146.5,182.3L149.8,182.8L150.7,183.5L155.5,182.7L155.7,184L158.9,185.1L159.5,186.5L162.5,186.9L164.5,185.9L166.2,186.3L167,182.7L169.8,180L175.3,177.6L175.9,174.2L175.6,171.6L178,170L179,168.1L185.1,170.8L187.4,170.9L191.3,172.2L191.9,174.8L190.2,175L189.1,177.5L189.4,180.6L190.8,181.6L190.9,183.4L195.5,185.6L196.4,189.3L195.8,191L197,193.7L198.9,190.9L202.2,194.9L205.9,195.2L207.9,194.2L211.3,198.9L212.7,198.3L215.7,202.1L218.4,201.2L218.7,202.2Z"></path>
  <path fill="#fc8d59" d="M224.1,147.1L226,149.4L227.6,149.8L227.8,151.8L230,153.5L229.9,154.9L232.8,155.3L233.3,157.2L235.2,155.3L235.9,157.2L238,156.9L238.8,161.5L237.1,165L236.2,165.6L235.5,170.6L233.9,172L231.9,169.4L233.2,167.7L234.2,164.6L228.9,164.6L227.1,162.8L220.9,159.5L218.4,158.8L214.1,154.5L211.5,152.4L209.9,152.2L208.9,150L210.8,149.7L215.8,152.8L217.8,151.2L215.7,147.7L219.2,149.3L218.9,146.3L220.8,145.5L222.4,147.3Z"></path>
  <path fill="#fdd49e" d="M383.2,566.5L382.8,567.3L384.9,569.6L382.4,573L380,578.4L378.2,577.3L376.7,577.5L375.7,574.9L374.4,575.2L375.7,576.6L375.5,579.1L374.6,580.3L374.9,588.2L370.7,590.8L367.5,589.6L366.5,587.4L362.3,585.8L362.5,582.9L359.6,583.2L358.5,582.6L356.9,579.1L354.1,578.8L352.6,576.6L353.1,574.7L358.5,573.4L359.7,571.8L358.2,569.6L358.2,567.7L355.8,566.6L357.3,564.9L357.9,559L360.1,554.9L358.3,551.5L361,549.6L363.9,549.8L363.6,551.4L364.8,554.5L364.3,555.2L367,556.7L366.6,558.2L368.8,559.9L369.8,559.7L373.3,561.5L375.8,561.9L378.3,566.3L380.5,566.8Z"></path>
  <path fill="#fdbb84" d="M198.5,93.6L199.8,97.9L200.9,97.1L202,98.4L201.7,100.5L204.8,103.3L204,105.5L202.3,104L200.3,104.2L199.3,108.3L197.3,109.4L196.7,110.7L198.3,113L197,116.2L198.1,118L199.5,121.5L197.9,122.3L194.9,121.3L192.5,122.5L192.9,121L189.4,121.6L187.4,120.5L186.4,118.9L181.2,115.6L178.8,115.3L178.9,113.1L176,111.2L176.5,108.3L175.4,105.6L175.5,103.3L174.1,102.1L177.4,101.7L178.8,96.4L176.8,91.9L178.1,90.7L177.7,88.4L181,86L184.6,84L187.7,84.9L187.2,83.1L190.5,84.9L191.5,84.6L194.2,86L195.7,91.5Z"></path>
  <path fill="#fdd49e" d="M392.5,516.7L391.4,515.5L387.5,517.2L386.1,516.9L384.8,518.2L381.7,517.6L380.7,519.7L379.6,518.8L378,521.5L375.9,521.4L373.5,523.3L373.3,519.6L372.3,518L367.7,518L366.5,516L364.1,515.5L362.2,512.1L358.4,509.7L358.7,509.3L359.3,508.3L362.3,507.5L362,504.6L362.6,502.6L366.3,501.3L367.8,495.7L364.9,491.9L364.1,486.2L361.8,486.9L359.8,485.5L362,481.7L363.8,481.2L366.8,481.6L367.8,483.2L369.5,482.9L372,484.1L375.1,483.5L376.3,482L379.5,480.7L379.7,478.2L381.2,478.3L381.5,476.3L383.6,475.5L385,476.6L384.7,478.1L386.5,480.9L385.8,481.4L383.9,477.7L384.1,479.3L386.1,482.5L385.7,483.7L389.1,486.6L388.8,489.1L386.3,488.5L387.9,487L385.4,485.3L384.4,487.5L385.3,488.4L384.5,490.3L386.5,491.8L388,491.6L386.3,496.1L387.5,497.9L387.2,495.5L388,495L389,496.8L387.9,498.6L387.9,501.9L391.4,508.1L395.7,513.3L394.8,514.9Z"></path>
  <path fill="#fdd49e" d="M255.1,268L252.3,272.3L251.9,274.4L252.9,277.9L254.6,281.5L259,288.6L262.3,293.2L266.7,298L269.6,300.4L278.1,306.9L275.4,309.5L272.1,311L271.3,313.3L269.7,312.9L269.1,315.3L268.2,315.5L267.6,318.3L266.3,318.7L263.5,317L262.3,317.9L259.7,317.8L258.8,315.4L257,315L255.4,316.3L251.8,315.1L249.9,312.3L250.6,311.1L248.7,309.6L245.2,304.7L246.7,303.5L245.5,303.1L245.4,300.7L244,300.4L243.9,302.1L242,302.7L235,297.2L224.1,284.7L220.8,282.2L218.8,282.2L218.5,279.7L215.3,275.8L215.6,274.2L213.6,273L212.1,271.1L213.7,266.5L216.6,266.4L218,264.3L220.2,265.2L222.6,264.4L222.1,263.1L224.5,262.8L225.7,261.7L227.6,261.7L228.5,263.2L230.1,262.9L234.4,266.5L232.9,268.7L239,270.2L241.5,269.4L244.1,270.1L244.2,269.3L247,266.6L251.6,267.4L252.2,268.5Z"></path>
  <path fill="#fdd49e" d="M351.3,365.5L352,367.3L349.3,365.2ZM317.5,360.8L319.6,360.6L321.5,361.9L324.3,360.4L325.4,363.1L324,366.3L325.4,367.5L328.1,366.8L330.1,367.2L331.3,366.2L332.9,367L335,365.3L336.3,366.4L338,364.8L340,365.2L341.9,367.4L345.5,369.9L346.8,374.4L350.5,380.4L355.3,386.8L357,388L355.9,390.1L358.1,389.8L359.2,388.7L359.5,390.7L361.4,392.8L360.5,394.1L357.3,394.3L354.6,395.5L343.7,397.8L341.6,397.6L339.7,400.3L340.9,401.5L340.6,403.8L337.4,408.4L337.6,410.7L334.9,409.5L333.3,409.8L333.8,413.1L333.4,414L330.5,414.6L328.3,412.5L325.6,412.2L323.9,409.8L325,408.9L326.2,404.8L323.9,403.7L322.8,402L321.1,402.8L313.6,401.1L313.2,397.2L312.3,397.5L310.1,395L310,393.5L308.2,392.1L305.2,393L303.2,392L303,389.3L300.2,387.8L296.7,388.2L295.9,384.5L294.1,381.9L292.3,381.9L291.1,380.3L291.7,378.4L290.1,376L288.7,376.3L289.4,374.1L288.5,372.1L293.5,369.2L297.6,368.7L298.8,367L300.8,362.4L301.8,361.6L304.4,363.1L304.9,361.5L308.1,360.5L308,361.8L312,363.8L315.4,360.3Z"></path>
  <path fill="#fdbb84" d="M377.8,432.7L376.2,431.4L374.7,428.5L370.9,426.9L368.5,427.5L366.2,427.1L365.6,427.9L362.5,428.3L362.4,431.8L359.5,431.8L356.2,434.3L352.3,432.2L351.1,430.4L349.2,430.4L350.7,427.5L349.9,426.7L351.4,424.2L349.8,421.9L348.2,422.4L345.2,420.7L343.7,418.1L341.6,416.5L341.2,414.9L339,413L337.6,410.7L337.4,408.4L340.6,403.8L340.9,401.5L339.7,400.3L341.6,397.6L343.7,397.8L354.6,395.5L357.3,394.3L360.5,394.1L361.4,392.8L363.3,393.5L365.7,392L365.7,393.6L368.4,396.4L367.7,397.7L369.7,400.2L370.8,400.3L370.5,402L368.9,403.4L369.3,408.5L370.2,411.9L372.9,418.9L375.6,423.7L377.6,426.5L377,427.3Z"></path>
  <path fill="#fdd49e" d="M295.2,127.4L296.6,127L296.6,128.7ZM294.9,124.1L297.3,124.7L295.2,125.4ZM304.9,121.5L302.1,125.3L301.9,124.8L305.2,120.3ZM314.4,117.9L315.7,120L313.4,118.4ZM304.5,118.2L304.7,118.9L302.8,122.6L297.7,123.4L301.2,121.1L301.7,119.3L304.1,116.6ZM319.6,116.6L317.7,119.4L316.9,119L318.5,116.4ZM306.2,113L305.6,114.5L303.6,114.8L304.8,112.8ZM307.1,116.3L306,119.6L305.5,118.6L306.4,115.3L308.6,112.4ZM299.2,106.3L297,107.8L297.4,106.3ZM300.7,105.2L303.8,107.9L304,109.2L307.6,107.8L304.4,111.5L303,111.3L302.5,112.7L296.7,116.5L297.6,112.9L299.7,111.2L298.6,110.7L300.4,108.6ZM317.2,101.5L314.1,103.7L312.1,103.6L317.4,100.9ZM326.4,99L323.9,100.8L320.3,100.9L319.6,99.9ZM272.1,126.9L271,127.5L270.4,126L267.7,126.8L269,128L267.1,127.9L266.7,125.9L265.3,125.2L266.7,124.5L267.5,122.6L267.4,119.7L261.8,117.6L259.9,117.6L258.2,115.8L255.4,116.3L252.5,115.4L251.8,112.8L253.9,112.2L254.7,107.5L256.6,109.1L259.8,110.2L261.2,109.8L268.5,111.2L270.3,109.3L271.8,109.9L274.4,109.5L275.4,110.2L277.5,107.4L277.2,104.6L279.6,103.7L280,102.6L283.2,100.1L286.6,100.6L288.9,99.5L290.5,100.5L291.1,98.9L289.8,95.9L289.5,92.8L288.2,91.8L291.9,90.6L292.5,89.3L295.8,89L296.8,89.1L298.4,87L300.7,85.8L302.2,87.2L301.5,89L304.3,89.5L305.2,88.3L310.8,88.5L317.1,86.1L319.3,86.2L321.5,89.6L322.6,89.5L323.9,91.9L326.3,91.9L327.2,94.8L324.9,97.1L325.7,94.7L319.2,92.7L318.8,93.7L315.6,92.7L314.1,93.8L316.5,94.1L314.2,98.8L310.7,98.1L310.4,99.7L309,99.7L307.3,104L303.6,101.8L302.8,103.8L299.9,102.6L299.9,104.7L296.4,102.9L295.7,104.6L296.1,107.4L295.5,111L297.1,112L296,115.4L296.2,117.4L294.4,118.9L292.5,118.6L288.8,119.3L287.4,121.1L284.2,121.7L281.5,120.6L280.1,121.2L274.9,120.6L275,122.9L270.9,123.4Z"></path>
  <path fill="#fdd49e" d="M297,327.4L293.1,332.4L294.1,334L291.4,336L290.3,335.1L285.2,335.8L284.2,336.7L281.3,337.1L281.7,338.7L284.1,339.9L284.6,342L281.3,342.6L280.2,345.3L277.9,347.1L279.4,348.9L277,348.9L276.9,346.7L273.7,344.6L272.3,342.4L273.2,338.5L270.4,336.9L269,341L267.6,340.7L267.6,342.4L266,343.6L263,341.5L261.6,337.3L262.6,335.2L258.8,334.3L257.1,329.8L257,321.3L255.5,320.3L255.6,318.6L256.9,318.5L257,315L258.8,315.4L259.7,317.8L262.3,317.9L263.5,317L266.3,318.7L267.6,318.3L268.2,315.5L269.1,315.3L269.7,312.9L271.3,313.3L272.1,311L275.4,309.5L278.1,306.9L283.7,310.5L283.9,314.4L286.5,318.2L290.2,321.9Z"></path>
  <path fill="#fdbb84" d="M229.8,659.3L234.1,664.4L236.1,665.8L242.5,672.1L245.2,673.8L242.9,677.3L240.6,678L238.5,681.9L239.7,683.6L237,685.6L235.9,685.4L225.6,688.8L222.5,690L221.8,685.5L224.1,684.3L223.2,682.4L222,684L219.9,682L216.7,683.6L214.3,683.3L213.5,682.1L209,680.1L209.5,674.9L209.1,673.6L210.5,672.2L215,671.4L216.5,669.9L223.2,665.8L224.8,657.8L225.8,656.7Z"></path>
  <path fill="#fdd49e" d="M131.6,84L132.3,85.5L136.9,85.5L139.7,86.9L143,86.2L144.5,86.6L145.7,85.4L151.5,86.4L149.1,88.9L148.5,91.4L149.3,92.7L148.8,95.4L151.1,98.4L151.8,97.9L155.3,100L155.4,100.8L158,101.2L160.6,98.2L163.4,97.7L166.1,99.7L168,99.9L168.2,98.8L170.3,98.5L171,101.2L172.4,102.5L174.1,102.1L175.5,103.3L175.4,105.6L176.5,108.3L176,111.2L178.9,113.1L176,114.8L176.7,117.2L180.2,122L181.9,123.2L183.3,126.3L183,127.8L184.2,128.5L182.6,130.8L182.9,132.3L177.4,130.1L175.6,130.7L175.7,135.8L173.9,136.5L173.6,139.1L170.6,139.6L169.8,138.2L167.9,138.5L165.7,135.7L162.3,132.6L160.1,133.4L159,132.7L158.4,130.1L156.6,128.5L155.3,128.7L150.9,125.5L151.3,124.9L148.6,122.2L147.6,123.6L146.8,122L144.3,120.7L141.5,121.1L140.3,119.7L137.7,121.1L136.7,123.4L133.9,122.9L132.6,123.8L130.4,123.2L128.2,125.4L126.2,125.2L124.6,128.2L125.4,131L122.6,131.7L122.7,135L120.2,135.3L119.4,133.4L116.1,131.2L111.8,130.7L109.7,127.1L108.6,128.5L105.8,129.2L98.4,126.3L97.9,123.8L101.3,123.2L101.8,121.1L100.8,115.4L102.5,113.9L105.7,115.6L107.8,115.2L106.5,111.2L108.2,110.4L108,103.2L105.3,102.3L106,100.8L103.6,97.8L106.3,97.1L108.7,97.3L109.5,93.3L112.2,92.2L112.4,90.7L114.2,87.5L113.5,86.6L116.1,84.8L114.2,80.9L112.5,76L110.4,73.4L111.3,70.6L112.6,68L116.3,68.5L118.7,69.5L120.2,73.1L122.1,75.1L120.8,77.8L123.8,78.6L125.9,82L127.3,81.9L127.6,83.7L129.6,84.6Z"></path>
  <path fill="#fdbb84" d="M252.3,573.2L254.1,578.1L251.4,579.6L251,581.8L248.4,583.8L247.9,586.3L246.3,589.2L247.7,591.9L247.5,593.6L248.8,594.3L249.3,596.7L251.2,597.5L252.1,599.1L251.1,601.2L250.4,605.2L247.8,606L244.9,604.4L243.8,606.5L242.2,606.3L238.8,607.4L238.4,606.5L240.4,606.8L239.8,603.3L238.2,600.8L235.8,602.3L234.9,600.8L231.7,598.7L231.4,596.6L228.6,596L226.5,594L226.4,592.2L224.4,592.1L225.1,588.5L224.5,587.3L226.1,584.2L224.8,583.4L225.3,580L224.2,578.4L222,578.2L221.8,575.7L225.2,573L228.6,574.8L231.3,570.4L231.4,568.6L234.2,568.2L236.1,569.7L238.2,570.1L239.8,569.3L242.9,570.6L245.1,573L248.9,571.8Z"></path>
  <path fill="#ef6548" d="M260.6,137L260.3,138.6L258.2,140.4L259.3,146.2L258.4,149.6L258.9,153.1L257.7,154.2L255.9,152.3L253.4,153.5L251.1,152.9L247,149.3L244,151.7L242.8,150.9L244.2,149.2L243.8,148L241.3,147.7L241.4,144.7L239.6,144.1L239,141.1L237.1,139.7L236.5,137.5L236,136.2L237.6,135.4L241.5,136.3L241.1,135.6L243.6,134.2L247,132.8L247.5,133.4L250.2,131.8L249.9,133.9L251.7,135.3L253.2,138.3L255.5,138.2L259.5,136.4Z"></path>
  <path fill="#fdbb84" d="M235.4,72.2L236.9,72.9L235.3,78.1L236.1,80L242.1,83L241.5,85L239.9,86.7L239.6,88.7L238.5,87.7L234.5,88L232.2,90.9L233.4,91.4L232.7,93.1L232.7,93.1L232.9,96.8L231.9,99.1L228.9,97.1L227.7,100.3L226.4,100L225.8,102.5L224.5,102.4L223.8,100L221.2,99.6L220.5,100.8L218.8,98.1L214.1,96L209.6,90.4L208.9,90.2L206.7,88L205.8,84.1L208.1,80.7L206.6,80.1L206.7,77.5L208.3,76.7L207.8,75.3L209.4,73.7L209.5,71.2L210.4,71.2L211.2,68.8L214.6,67.6L214.9,66.8L218.9,68.6L220,71.5L219.3,78.2L221.2,78.7L221.9,76.9L225.2,76.1L230.8,72.5L231.9,70.9Z"></path>
  <path fill="#fdbb84" d="M208.9,150L209.9,152.2L211.5,152.4L214.1,154.5L218.4,158.8L220.9,159.5L227.1,162.8L228.9,164.6L234.2,164.6L233.2,167.7L231.9,169.4L228.8,171.5L229.1,173.4L227.5,176.3L227.5,178.8L225.8,181.5L224.9,181.2L222.9,184.5L221.5,192.7L221.8,195.8L220.4,197.2L222,201.4L221.4,202.7L218.7,202.2L218.4,201.2L215.7,202.1L212.7,198.3L211.3,198.9L207.9,194.2L205.9,195.2L202.2,194.9L198.9,190.9L197,193.7L195.8,191L196.4,189.3L195.5,185.6L190.9,183.4L190.8,181.6L189.4,180.6L189.1,177.5L190.2,175L191.9,174.8L191.3,172.2L187.4,170.9L185.1,170.8L179,168.1L180.1,165.9L182.6,163.2L179.3,160.9L179.6,160.1L176.7,160.9L172.1,158.1L169.7,158L166.8,156.4L164.6,155.9L165,149.9L167.9,148L169.3,148.2L166.7,144.5L165.2,145.1L163.8,147.4L160.5,147.6L160.3,148.5L157.5,149.8L154.7,148.5L155.1,146.9L153.5,145.8L154,143.9L157.7,142.5L160.2,140.8L161.1,138.4L164,138L165.7,135.7L167.9,138.5L169.8,138.2L170.6,139.6L173.6,139.1L173.9,136.5L175.7,135.8L178.1,134.9L181.1,137L181.2,137.9L184.1,140.4L186.9,139.5L190.3,141.2L191.1,142.5L193.9,143L195.7,145.5L195.4,146.5L199.6,148.7L202.3,149.5L203.3,148.8L207.1,150.1Z"></path>
  <path fill="#fdbb84" d="M335.5,353.4L332.3,354.6L328.9,354.9L325.6,353.2L324.1,354.4L322,353.1L320.3,354L319.3,358L317.5,360.8L315.4,360.3L312,363.8L308,361.8L308.1,360.5L304.9,361.5L304.4,363.1L301.8,361.6L300.8,362.4L299.5,359.6L294.6,360.9L292,357.8L290.1,356.4L287.7,356.5L286.1,355.4L285.4,353.1L285.7,350.6L282.4,348.3L279.4,348.9L277.9,347.1L280.2,345.3L281.3,342.6L284.6,342L284.1,339.9L281.7,338.7L281.3,337.1L284.2,336.7L285.2,335.8L290.3,335.1L291.4,336L294.1,334L293.1,332.4L297,327.4L302.7,332L307.8,335.6L310.3,336.7L315,340.2L320.8,345.3L325,348.1L326.9,348.2L327.3,346.9L330.4,352.4L327.9,350.9L328.9,353.1L330.8,352.7Z"></path>
  <path fill="#fc8d59" d="M265.8,629.8L268.9,634.1L270.2,637.9L268.1,639L267.5,640.4L267.7,644.6L266.5,644.5L262.9,642.3L256.4,640.9L253.2,639L249.5,637.5L245.3,638.4L244.5,637.9L240.5,638.7L237.6,640.1L234.3,640.3L232.4,639.4L229.8,637.9L227.1,640.1L225.7,640.5L223,639.4L222,638.2L221.9,635.9L223.3,636.1L224,634.1L228,629.9L228,627.9L235.6,628.6L235.6,626L244.4,625.5L246,626.3L248.4,628.8L248.4,630.2L250,630L252.4,632L250.5,633L253.7,634.6L256,632.9L257.4,633.9L260.6,632L261.2,630.7L263.3,632.6Z"></path>
  <path fill="#990000" d="M270.8,610.3L271.6,613.1L272.7,614.4L272.5,616.8L270,616.2L267.3,618.1L266.8,620.3L270.1,623.5L272.5,622.5L274.3,624.5L277.7,625.9L278,628.3L279.1,628.5L278.2,631L277.2,630.7L276,633.1L277.1,634.2L272.7,635.6L272.1,637.3L270.2,637.9L268.9,634.1L265.8,629.8L266.5,628.5L265.6,623.4L263.4,622.2L261.3,623.7L259.7,622L257.3,622.5L255.6,618.9L253,617.3L254.6,615.9L256.3,610.3L252.4,608.4L250.4,606.9L248.5,607.1L247.8,606L250.4,605.2L251.1,601.2L252.1,599.1L252.4,597.9L255.9,599.8L255.4,600.9L256.8,603.3L259.4,603.4L260.1,606.1L261.7,606.6L261.8,608.8L263.4,609.4L263.6,611.3L265,610.6L267.1,611.9L269.3,611.7Z"></path>
  <path fill="#fdbb84" d="M259.3,663.4L257.6,666L258.3,669.8L257.5,671.9L254.6,675.1L250.4,676.5L247.1,674L245.2,673.8L242.5,672.1L236.1,665.8L234.1,664.4L229.8,659.3L230,658.4L234.8,655.6L236.1,656.7L237,655.6L237.2,652.6L239.8,652.5L241,653.6L242.3,649.8L244.5,651.3L245.6,652.6L254.2,658Z"></path>
  <path fill="#fdd49e" d="M206.8,37.7L208.4,37.7L210,41.4L211.2,42.2L211.5,44.9L209.8,46.2L209.3,48.6L207.8,49.3L207.5,52L206.1,53.5L206.4,54.6L203.8,56.3L203.7,58.7L205.5,61.2L206.5,61.3L205.2,63.4L205.2,65.5L206.4,67L207.1,69.5L209.5,71.2L209.4,73.7L207.8,75.3L208.3,76.7L206.7,77.5L206.6,80.1L208.1,80.7L205.8,84.1L206.7,88L208.9,90.2L207.8,92.2L203.2,94L200.6,92.7L198.5,93.6L195.7,91.5L194.2,86L191.5,84.6L190.5,84.9L187.2,83.1L185.7,81.8L187.8,78.4L183.7,74.1L183.9,72.3L182.5,72.6L182.9,67L181.2,67.7L180.2,66.5L177.6,65.6L176.6,64.3L175.8,60L178.1,60L179.1,57.2L177.9,55.7L179.3,54.7L178.1,53.5L178.2,51.8L180.6,53.2L182.1,53.1L183.6,55.9L185.2,54.9L185.9,52.8L185,51.8L187.1,51.3L186.5,50.2L187.8,48.7L187.2,47.4L188.5,46.6L188.2,44.8L189.1,42.8L188.5,40.7L189.7,38.2L190.6,38.2L189.3,35.9L190.1,34.7L196.6,37.5L197.8,38.8L198.7,37.5L204.9,39Z"></path>
  <path fill="#fc8d59" d="M244.5,651.3L242.3,649.8L241,653.6L239.8,652.5L237.2,652.6L237,655.6L236.1,656.7L234.8,655.6L230,658.4L229.8,659.3L225.8,656.7L223.3,654.6L220.6,650.7L215.6,647.3L217.8,643.9L221.3,646.3L224.6,646.3L224.8,644.6L226.9,643.6L224.9,641L225.7,640.5L227.1,640.1L229.8,637.9L232.4,639.4L233,641.9L236.6,642.6L239.1,645.3L241.6,647Z"></path>
  <path fill="#fc8d59" d="M220.5,100.8L219.4,103.6L217.5,105.6L217.6,107.5L214.8,106.8L212.4,108.5L212.6,109.9L209.8,111.1L206.6,110.7L205.4,109.8L204,105.5L204.8,103.3L201.7,100.5L202,98.4L200.9,97.1L199.8,97.9L198.5,93.6L200.6,92.7L203.2,94L207.8,92.2L208.9,90.2L209.6,90.4L214.1,96L218.8,98.1Z"></path>
  <path fill="#fdd49e" d="M175.8,60L176.6,64.3L177.6,65.6L180.2,66.5L181.2,67.7L182.9,67L182.5,72.6L183.9,72.3L183.7,74.1L187.8,78.4L185.7,81.8L187.2,83.1L187.7,84.9L184.6,84L181,86L177.7,88.4L178.1,90.7L176.8,91.9L178.8,96.4L177.4,101.7L174.1,102.1L172.4,102.5L171,101.2L170.3,98.5L168.2,98.8L168,99.9L166.1,99.7L163.4,97.7L160.6,98.2L158,101.2L155.4,100.8L155.3,100L151.8,97.9L151.1,98.4L148.8,95.4L149.3,92.7L148.5,91.4L149.1,88.9L151.5,86.4L145.7,85.4L144.5,86.6L143,86.2L139.7,86.9L136.9,85.5L132.3,85.5L131.6,84L131.3,82.3L133,82L133.7,80.6L133,79.1L130,75.8L130.1,73.1L132.6,73.2L134.6,70.8L135.8,73.2L139.6,73.4L144.5,74.7L146.3,73.8L145.5,71.7L150.8,73.2L152.3,75.3L155.7,72.4L155.1,67.9L153.4,65.8L154.7,63.4L153.6,60.4L155.1,59.3L162.2,64.8L163.1,60.4L165.2,60.6L163.3,56.7L164.1,54.9L169.8,56.4L169.9,59.2L171.4,60.6Z"></path>
</svg>
